<?xml version="1.0" encoding="utf-8"?>
<!-- Generator: Adobe Illustrator 16.0.0, SVG Export Plug-In . SVG Version: 6.00 Build 0)  -->
<!DOCTYPE svg PUBLIC "-//W3C//DTD SVG 1.1//EN" "http://www.w3.org/Graphics/SVG/1.1/DTD/svg11.dtd">
<svg version="1.1" id="Capa_1" xmlns="http://www.w3.org/2000/svg" xmlns:xlink="http://www.w3.org/1999/xlink" x="0px" y="0px"
	 width="841.891px" height="614px" viewBox="0 283.775 841.891 614" enable-background="new 0 283.775 841.891 614"
	 xml:space="preserve">
<path fill="#393D49" d="M29.541,693.661V335.472c0-19.904,16.135-36.041,36.04-36.041h358.01c19.902,0,36.038,16.137,36.038,36.041
	V693.66c0,6.635-5.377,12.014-12.014,12.014H41.555c-6.637,0-12.014-5.379-12.014-12.016V693.661z M318.644,816.371
	c0,41.282-33.468,74.749-74.749,74.749c-41.282,0-74.75-33.467-74.75-74.749c0-41.285,33.468-74.75,74.75-74.75
	S318.644,775.086,318.644,816.371z M281.268,816.371c0-20.643-16.732-37.375-37.375-37.375c-20.642,0-37.376,16.732-37.376,37.375
	c0,20.641,16.734,37.376,37.376,37.376C264.535,853.747,281.268,837.011,281.268,816.371z M179.513,741.62H12.016
	c-6.635,0-12.014,5.379-12.014,12.013v36.448c0,6.635,5.379,12.013,12.014,12.013h134.259c3.506-24.051,15.646-45.297,33.241-60.474
	H179.513z M709.739,816.371c0,41.282-33.468,74.749-74.749,74.749c-41.283,0-74.75-33.467-74.75-74.749
	c0-41.285,33.467-74.75,74.75-74.75C676.271,741.62,709.739,775.086,709.739,816.371z M672.365,816.371
	c0-20.643-16.733-37.375-37.376-37.375s-37.375,16.732-37.375,37.375c0,20.641,16.733,37.376,37.375,37.376
	C655.632,853.747,672.365,837.011,672.365,816.371z M841.885,753.633v36.448c0,6.635-5.378,12.013-12.014,12.013h-97.264
	c-6.956-47.711-48.018-84.501-97.616-84.501c-49.607,0-90.671,36.792-97.628,84.501h-195.85
	c-3.506-24.05-15.646-45.297-33.24-60.474h185.697V397.999c0-13.27,10.757-24.026,24.026-24.026h113.414
	c31.935,0,61.781,15.862,79.648,42.328l73.115,108.291c10.725,15.885,16.456,34.613,16.456,53.779v163.247h29.235
	c6.636,0,12.015,5.379,12.015,12.014L841.885,753.633z M720.015,527.368l-58.466-83.079c-2.251-3.196-5.915-5.101-9.825-5.101
	h-91.197c-6.634,0-12.014,5.38-12.014,12.015v83.079c0,6.636,5.379,12.014,12.014,12.014h149.669
	c9.731,0,15.424-10.968,9.822-18.928H720.015z"/>
</svg>
