<?xml version="1.0" encoding="iso-8859-1"?>
<!-- Generator: Adobe Illustrator 19.0.0, SVG Export Plug-In . SVG Version: 6.00 Build 0)  -->
<svg version="1.1" id="Capa_1" xmlns="http://www.w3.org/2000/svg" xmlns:xlink="http://www.w3.org/1999/xlink" x="0px" y="0px"
	 viewBox="0 0 464 464" style="enable-background:new 0 0 464 464;" xml:space="preserve">
<g>
	<path style="fill:#88B337;" d="M376,40H96c0-17.673,14.327-32,32-32h248V40z"/>
	<path style="fill:#88B337;" d="M384,0c8.837,0,16,7.163,16,16v32l0,0h-32l0,0V16C368,7.163,375.163,0,384,0z"/>
</g>
<path style="fill:#6A9923;" d="M352,464H112L80,88h304L352,464z"/>
<path style="fill:#77A226;" d="M80,40h304c17.673,0,32,14.327,32,32v16l0,0H48l0,0V72C48,54.327,62.327,40,80,40z"/>
<g>
	<path style="fill:#618C20;" d="M381.96,112L384,88H80l2.04,24H381.96z"/>
	<path style="fill:#618C20;" d="M110.816,450.12L112,464h240l25.648-301.344C298.192,324.968,188.52,408.608,110.816,450.12
		L110.816,450.12z"/>
</g>
<g>
	<path style="fill:#88B337;" d="M277.008,240c-2.761,0.003-5.329-1.419-6.792-3.76L232,175.096l-9.216,14.744
		c-2.342,3.756-7.284,4.902-11.04,2.56c-3.756-2.342-4.902-7.284-2.56-11.04l0,0l16-25.6c2.64-3.756,7.825-4.66,11.58-2.02
		c0.785,0.552,1.468,1.235,2.02,2.02l45,72c2.342,3.747,1.203,8.682-2.544,11.024C279.971,239.577,278.505,239.999,277.008,240z"/>
	<path style="fill:#88B337;" d="M184,296h-32c-4.418,0-8-3.582-8-8c0-1.499,0.421-2.969,1.216-4.24l45-72
		c2.342-3.756,7.284-4.902,11.04-2.56c3.756,2.342,4.902,7.284,2.56,11.04L166.4,280H184c4.418,0,8,3.582,8,8S188.418,296,184,296
		L184,296z"/>
	<path style="fill:#88B337;" d="M312,296h-96c-4.418,0-8-3.582-8-8s3.582-8,8-8h81.048l-7.704-11.56
		c-2.452-3.676-1.46-8.644,2.216-11.096s8.644-1.46,11.096,2.216l16,24c2.452,3.675,1.461,8.643-2.215,11.095
		C315.126,295.532,313.581,296,312,296z"/>
	<path style="fill:#88B337;" d="M280,240h-32c-4.418,0-8-3.582-8-8s3.582-8,8-8h25.752l6.488-25.944
		c1.105-4.278,5.468-6.85,9.746-5.746c4.234,1.093,6.806,5.384,5.774,9.634l-8,32C286.868,237.503,283.669,240,280,240z"/>
	<path style="fill:#88B337;" d="M240,320c-2.122,0-4.156-0.844-5.656-2.344l-24-24c-3.123-3.124-3.123-8.188,0-11.312l24-24
		c3.178-3.07,8.242-2.982,11.312,0.196c2.995,3.1,2.995,8.016,0,11.116L227.312,288l18.344,18.344
		c3.124,3.125,3.123,8.19-0.002,11.314C244.155,319.157,242.121,320,240,320z"/>
	<path style="fill:#88B337;" d="M208,256c-3.666-0.004-6.861-2.499-7.752-6.056L193.752,224H168c-4.418,0-8-3.582-8-8s3.582-8,8-8
		h32c3.669,0,6.868,2.497,7.76,6.056l8,32c1.074,4.286-1.53,8.63-5.816,9.704C209.309,255.921,208.656,256.002,208,256z"/>
</g>
<circle style="fill:#595959;" cx="352" cy="408" r="56"/>
<circle style="fill:#CFCFCF;" cx="352" cy="408" r="16"/>
<g>
</g>
<g>
</g>
<g>
</g>
<g>
</g>
<g>
</g>
<g>
</g>
<g>
</g>
<g>
</g>
<g>
</g>
<g>
</g>
<g>
</g>
<g>
</g>
<g>
</g>
<g>
</g>
<g>
</g>
</svg>
