<?xml version="1.0" encoding="iso-8859-1"?>
<!-- Generator: Adobe Illustrator 19.0.0, SVG Export Plug-In . SVG Version: 6.00 Build 0)  -->
<svg version="1.1" id="Layer_1" xmlns="http://www.w3.org/2000/svg" xmlns:xlink="http://www.w3.org/1999/xlink" x="0px" y="0px"
	 viewBox="0 0 512 512" style="enable-background:new 0 0 512 512;" xml:space="preserve">
<path style="fill:#A3682D;" d="M443.733,85.333h-25.6c-4.713,0-8.533-3.821-8.533-8.533s3.821-8.533,8.533-8.533h25.6V51.2h-25.6
	c-4.713,0-8.533-3.821-8.533-8.533s3.821-8.533,8.533-8.533h25.6c9.41,0,17.067,7.657,17.067,17.067v17.067
	C460.8,77.677,453.143,85.333,443.733,85.333z"/>
<path style="fill:#66BF00;" d="M303.931,512H173.936c-26.135,0-48.076-19.684-50.9-45.667L85.333,119.467h307.2l-37.702,346.866
	C352.006,492.316,330.066,512,303.931,512z"/>
<path style="fill:#58AB23;" d="M392.533,119.467h-307.2l37.702,346.866c2.825,25.982,24.765,45.667,50.9,45.667h22.331
	c-26.135,0-48.076-19.685-50.9-45.667l-32.965-303.277c-0.548-5.049,3.406-9.455,8.483-9.455h267.938L392.533,119.467z"/>
<path style="fill:#66BF00;" d="M392.533,0h-307.2C66.482,0,51.2,15.282,51.2,34.133v76.8c0,14.139,11.461,25.6,25.6,25.6h324.267
	c14.139,0,25.6-11.461,25.6-25.6v-76.8C426.667,15.282,411.385,0,392.533,0z"/>
<path style="fill:#B6E462;" d="M392.533,0h-307.2C69.428,0,56.065,10.878,52.275,25.6H425.59C421.802,10.878,408.438,0,392.533,0z"
	/>
<rect x="51.2" y="59.733" style="fill:#58AB23;" width="375.467" height="17.067"/>
<circle style="fill:#FFC552;" cx="341.333" cy="460.8" r="51.2"/>
<circle style="fill:#FC9C47;" cx="341.333" cy="460.8" r="34.133"/>
<circle style="fill:#C09350;" cx="341.333" cy="460.8" r="17.067"/>
<g>
	<path style="fill:#B6E462;" d="M328.082,312.818l-14.905-29.809c-2.108-4.215-7.235-5.923-11.447-3.817
		c-4.215,2.108-5.924,7.233-3.817,11.449l14.905,29.809c2.807,5.615-1.382,12.35-7.632,12.35h-45.65
		c1.523-1.523,3.315-2.989,4.227-4.982c1.467-3.206,0.765-7.092-1.728-9.585c-3.333-3.332-8.735-3.332-12.068,0L232.9,335.299
		c-3.332,3.332-3.332,8.735,0,12.067l17.067,17.067c3.289,3.287,8.78,3.287,12.068,0c3.332-3.332,3.332-8.735,0-12.067l-2.5-2.499
		h45.65c8.938,0,17.078-4.539,21.777-12.141C331.661,330.123,332.079,320.812,328.082,312.818z"/>
	<path style="fill:#B6E462;" d="M211.467,332.8h-38.785c-6.251,0-10.441-6.735-7.632-12.35l30.543-61.086
		c0.38,1.521,0.658,3.117,1.198,4.592c0.969,2.649,3.253,4.683,5.991,5.351c6.138,1.5,11.826-4.254,10.298-10.363l-5.854-23.415
		c-1.577-6.311-8.821-7.764-14.119-5.266l-19.644,4.911c-4.572,1.143-7.353,5.776-6.208,10.349c0.823,3.294,3.609,5.838,6.962,6.363
		c2.219,0.347,4.373-0.401,6.501-0.932l-30.932,61.865c-3.997,7.994-3.578,17.305,1.12,24.908
		c4.698,7.602,12.838,12.141,21.776,12.141h38.785c4.713,0,8.533-3.821,8.533-8.533C220,336.621,216.179,332.8,211.467,332.8z"/>
	<path style="fill:#B6E462;" d="M302.869,231.722c-4.569-1.139-9.205,1.637-10.348,6.209l-0.627,2.511l-30.064-60.128
		c-4.365-8.729-13.137-14.151-22.897-14.151s-18.532,5.422-22.897,14.151l-14.442,28.884c-2.108,4.215-0.399,9.341,3.815,11.449
		c4.217,2.11,9.341,0.4,11.449-3.817l14.442-28.884c3.092-6.185,12.172-6.185,15.265,0l31.188,62.375l-4.153-1.038
		c-4.57-1.14-9.205,1.637-10.348,6.209c-1.143,4.573,1.636,9.205,6.208,10.349l23.414,5.854c4.513,1.126,9.22-1.696,10.348-6.209
		l5.854-23.415C310.222,237.498,307.442,232.865,302.869,231.722z"/>
</g>
<g>
</g>
<g>
</g>
<g>
</g>
<g>
</g>
<g>
</g>
<g>
</g>
<g>
</g>
<g>
</g>
<g>
</g>
<g>
</g>
<g>
</g>
<g>
</g>
<g>
</g>
<g>
</g>
<g>
</g>
</svg>
