<?xml version="1.0" encoding="iso-8859-1"?>
<!-- Generator: Adobe Illustrator 19.0.0, SVG Export Plug-In . SVG Version: 6.00 Build 0)  -->
<svg version="1.1" id="Capa_1" xmlns="http://www.w3.org/2000/svg" xmlns:xlink="http://www.w3.org/1999/xlink" x="0px" y="0px"
	 viewBox="0 0 480 480" style="enable-background:new 0 0 480 480;" xml:space="preserve">
<polygon style="fill:#59D541;" points="320,320 328,320 328,288 320,288 160,288 152,288 152,320 160,320 "/>
<path style="fill:#25C656;" d="M160,320v152h160V320H160z M258.104,424h-36.207c-12.779,0-20.401-14.243-13.313-24.875
	l18.104-27.155c6.333-9.5,20.292-9.5,26.626,0l18.104,27.155C278.505,409.757,270.883,424,258.104,424z"/>
<polygon style="fill:#42739B;" points="328,320 464,320 472,320 472,288 464,288 328,288 "/>
<g>
	<path style="fill:#20557D;" d="M320,320v152h144V320H328H320z M416,416l16,16L416,416z M432,352l-16,16L432,352z M392,360
		c17.68,0,32,14.32,32,32c0,11.84-6.4,22.16-16,27.68V440h-32v-20.32c-9.6-5.52-16-15.84-16-27.68C360,374.32,374.32,360,392,360z
		 M368,368l-16-16L368,368z M368,416l-16,16L368,416z"/>
	<polygon style="fill:#20557D;" points="328,288 464,288 440,208 416,208 416,256 352,256 352,208 328,208 312,261.36 320,288 	"/>
</g>
<rect x="352" y="208" style="fill:#2D9CCA;" width="64" height="48"/>
<polygon style="fill:#F1E200;" points="8,320 16,320 152,320 152,288 16,288 8,288 "/>
<path style="fill:#DBCE00;" d="M152,320H16v152h144V320H152z M104,376l-16,16v16l16,16l-16-16l-16,16l16-16v-16l-16-16H48h24v-24v24
	l16,16L104,376v-24V376h24H104z"/>
<polygon style="fill:#F1E200;" points="160,288 167.996,261.347 152,208 128,208 128,256 64,256 64,208 40,208 16,288 152,288 "/>
<rect x="64" y="208" style="fill:#DBCE00;" width="64" height="48"/>
<polygon style="fill:#A0D92A;" points="160,288 320,288 312,261.36 296,208 272,208 272,256 208,256 208,208 184,208 
	167.996,261.347 168,261.36 "/>
<polygon style="fill:#F1E200;" points="168,261.36 167.996,261.347 160,288 "/>
<rect x="208" y="208" style="fill:#59D541;" width="64" height="48"/>
<path style="fill:#FFB398;" d="M320,64V8h-24h-72l-56,56l1.373,1.373c12.497,12.497,32.758,12.497,45.255,0L232,48h32
	c-8.836,8.836-8.836,23.163,0,32l8,8l24-24H320z"/>
<rect x="320" y="8" style="fill:#039D7B;" width="64" height="56"/>
<g>
	<path style="fill:#F1E200;" d="M253.313,371.969c-6.333-9.5-20.292-9.5-26.626,0l-18.104,27.155
		C201.495,409.757,209.117,424,221.896,424h36.207c12.779,0,20.401-14.243,13.313-24.875L253.313,371.969z"/>
	<path style="fill:#F1E200;" d="M384,392h-24c0,11.84,6.4,22.16,16,27.68V440h32v-20.32c9.6-5.52,16-15.84,16-27.68h-24h24
		c0-17.68-14.32-32-32-32s-32,14.32-32,32H384z"/>
	<polygon style="fill:#F1E200;" points="200,168 240,184 240,152 240,184 280,168 240,104 	"/>
</g>
<path d="M472,280h-2.047l-22.289-74.297C446.648,202.316,443.531,200,440,200h-24h-64h-24c-3.535,0-6.648,2.316-7.664,5.703
	l-8.334,27.795l-8.337-27.795C302.648,202.316,299.535,200,296,200h-24h-64h-24c-3.531,0-6.648,2.316-7.664,5.703l-8.338,27.793
	l-8.334-27.793C158.648,202.316,155.535,200,152,200h-24H64H40c-3.531,0-6.648,2.316-7.664,5.703L10.047,280H8c-4.418,0-8,3.582-8,8
	v32c0,4.418,3.582,8,8,8v144c0,4.418,3.582,8,8,8h144h160h144c4.418,0,8-3.582,8-8V328c4.418,0,8-3.582,8-8v-32
	C480,283.582,476.418,280,472,280z M16,312v-16h128v16H16z M160,312v-16h160v16H160z M336,296h128v16H336V296z M408,216v32h-48v-32
	H408z M333.953,216H344v40c0,4.418,3.582,8,8,8h64c4.418,0,8-3.582,8-8v-40h10.047l19.199,64H328h-2.049l-5.595-18.653L333.953,216z
	 M264,216v32h-48v-32H264z M189.953,216H200v40c0,4.418,3.582,8,8,8h64c4.418,0,8-3.582,8-8v-40h10.047l14.289,47.63
	c0.003,0.01,0.001,0.02,0.004,0.03l4.42,14.72l0.486,1.62H170.754l0.486-1.62l4.42-14.72c0.003-0.01,0.001-0.02,0.004-0.03
	L189.953,216z M120,216v32H72v-32H120z M45.953,216H56v40c0,4.418,3.582,8,8,8h64c4.418,0,8-3.582,8-8v-40h10.047l13.597,45.344
	L154.047,280H152H26.754L45.953,216z M24,328h128v136H24V328z M168,328h144v136H168V328z M456,464H328V328h128V464z"/>
<path d="M163.715,71.027c15.594,15.602,40.977,15.602,56.57,0L235.313,56h15.129c-2.754,10.238-0.117,21.637,7.902,29.656l8,8
	C267.906,95.219,269.953,96,272,96s4.094-0.781,5.656-2.344L299.313,72H320h64c4.418,0,8-3.582,8-8V8c0-4.418-3.582-8-8-8h-64h-96
	c-2.121,0-4.156,0.844-5.656,2.344l-56,56c-3.125,3.125-3.125,8.188,0,11.313L163.715,71.027z M376,56h-48V16h48V56z M227.313,16
	H312v40h-16c-2.121,0-4.156,0.844-5.656,2.344L272,76.688l-2.344-2.344c-5.703-5.703-5.703-14.984,0-20.688
	c2.289-2.289,2.973-5.727,1.734-8.719C270.152,41.949,267.234,40,264,40h-32c-2.121,0-4.156,0.844-5.656,2.344l-17.371,17.371
	c-7.605,7.605-20.09,9.051-29.117,3.742L227.313,16z"/>
<path d="M259.969,367.531c-4.461-6.691-11.926-10.688-19.969-10.688s-15.508,3.996-19.969,10.688l-18.105,27.156
	c-4.918,7.379-5.375,16.82-1.188,24.641c4.184,7.816,12.289,12.672,21.156,12.672h36.211c8.867,0,16.973-4.855,21.156-12.672
	c4.188-7.82,3.73-17.262-1.188-24.641L259.969,367.531z M265.156,411.777c-0.68,1.27-2.727,4.223-7.051,4.223h-36.211
	c-4.324,0-6.371-2.953-7.051-4.223c-0.68-1.273-2.004-4.617,0.395-8.215l18.105-27.156c3.016-4.531,10.297-4.531,13.313,0
	l18.105,27.156C267.16,407.16,265.836,410.504,265.156,411.777z"/>
<path d="M357.656,437.656L368,427.313V440c0,4.418,3.582,8,8,8h32c4.418,0,8-3.582,8-8v-12.688l10.344,10.344l11.313-11.313
	l-12.308-12.308C429.604,407.597,432,399.956,432,392c0-8.139-2.472-15.699-6.664-22.023l12.32-12.32l-11.313-11.313l-12.32,12.32
	C407.699,354.472,400.139,352,392,352s-15.699,2.472-22.023,6.664l-12.32-12.32l-11.313,11.313l12.32,12.32
	C354.472,376.301,352,383.861,352,392c0,7.956,2.396,15.597,6.652,22.036l-12.308,12.308L357.656,437.656z M392,368
	c10.416,0,19.213,6.708,22.526,16H400v16h14.438c-1.891,5.271-5.444,9.879-10.426,12.742c-2.48,1.43-4.012,4.074-4.012,6.938V432
	h-16v-12.32c0-2.863-1.531-5.508-4.012-6.938c-4.981-2.863-8.535-7.471-10.426-12.742H384v-16h-14.526
	C372.787,374.708,381.584,368,392,368z"/>
<polygon points="112,352 96,352 96,372.688 88,380.688 80,372.688 80,352 64,352 64,368 48,368 48,384 68.688,384 80,395.313 
	80,404.688 66.344,418.344 77.656,429.656 88,419.313 98.344,429.656 109.656,418.344 96,404.688 96,395.313 107.313,384 128,384 
	128,368 112,368 "/>
<path d="M233.215,99.762l-40,64c-1.254,2.008-1.555,4.473-0.82,6.723c0.738,2.254,2.434,4.063,4.633,4.945l40,16
	c0.957,0.379,1.965,0.57,2.973,0.57s2.016-0.191,2.973-0.57l40-16c2.199-0.883,3.895-2.691,4.633-4.945
	c0.734-2.25,0.434-4.715-0.82-6.723l-40-64C243.855,95.082,236.145,95.082,233.215,99.762z M248,172.183V152h-16v20.183
	l-20.145-8.058L240,119.094l28.145,45.031L248,172.183z"/>
<g>
</g>
<g>
</g>
<g>
</g>
<g>
</g>
<g>
</g>
<g>
</g>
<g>
</g>
<g>
</g>
<g>
</g>
<g>
</g>
<g>
</g>
<g>
</g>
<g>
</g>
<g>
</g>
<g>
</g>
</svg>
