<?xml version="1.0" encoding="iso-8859-1"?>
<!-- Generator: Adobe Illustrator 19.0.0, SVG Export Plug-In . SVG Version: 6.00 Build 0)  -->
<svg version="1.1" id="Capa_1" xmlns="http://www.w3.org/2000/svg" xmlns:xlink="http://www.w3.org/1999/xlink" x="0px" y="0px"
	 viewBox="0 0 464 464" style="enable-background:new 0 0 464 464;" xml:space="preserve">
<polygon style="fill:#59D541;" points="152,280 144,280 144,312 152,312 312,312 320,312 320,280 312,280 "/>
<path style="fill:#25C656;" d="M152,312v152h160V312H152z M271.262,411.328C267.078,419.145,258.973,424,250.105,424h-36.211
	c-8.867,0-16.973-4.855-21.156-12.672c-4.188-7.82-3.73-17.262,1.188-24.641l18.105-27.156c4.461-6.691,11.926-10.688,19.969-10.688
	s15.508,3.996,19.969,10.688l18.105,27.156C274.992,394.066,275.449,403.508,271.262,411.328z"/>
<polygon style="fill:#42739B;" points="456,280 320,280 320,312 456,312 464,312 464,280 "/>
<g>
	<path style="fill:#20557D;" d="M312,312v152h144V312H320H312z M344,384c0-8.139,2.472-15.699,6.664-22.023l-12.32-12.32
		l11.313-11.313l12.32,12.32C368.301,346.472,375.861,344,384,344s15.699,2.472,22.023,6.664l12.32-12.32l11.313,11.313
		l-12.32,12.32C421.528,368.301,424,375.861,424,384c0,7.956-2.396,15.597-6.652,22.036l12.308,12.308l-11.313,11.313L408,419.313
		V432c0,4.418-3.582,8-8,8h-32c-4.418,0-8-3.582-8-8v-12.688l-10.344,10.344l-11.313-11.313l12.308-12.308
		C346.396,399.597,344,391.956,344,384z"/>
	<polygon style="fill:#20557D;" points="320,280 456,280 432,200 408,200 408,248 344,248 344,200 320,200 304,253.36 312,280 	"/>
</g>
<rect x="344" y="200" style="fill:#2D9CCA;" width="64" height="48"/>
<polygon style="fill:#F1E200;" points="144,280 8,280 0,280 0,312 8,312 144,312 "/>
<path style="fill:#DBCE00;" d="M144,312H8v152h144V312H144z M120,376H99.313L88,387.313v9.375l13.656,13.656l-11.313,11.313
	L80,411.313l-10.344,10.344l-11.313-11.313L72,396.688v-9.375L60.688,376H40v-16h16v-16h16v20.688l8,8l8-8V344h16v16h16V376z"/>
<polygon style="fill:#F1E200;" points="152,280 159.996,253.347 144,200 120,200 120,248 56,248 56,200 32,200 8,280 144,280 "/>
<rect x="56" y="200" style="fill:#DBCE00;" width="64" height="48"/>
<polygon style="fill:#A0D92A;" points="152,280 312,280 304,253.36 288,200 264,200 264,248 200,248 200,200 176,200 
	159.996,253.347 160,253.36 "/>
<polygon style="fill:#F1E200;" points="160,253.36 159.996,253.347 152,280 "/>
<rect x="200" y="200" style="fill:#59D541;" width="64" height="48"/>
<path style="fill:#FFB398;" d="M206.627,57.373L224,40h32c-8.836,8.836-8.836,23.163,0,32l8,8l24-24h24V0h-24h-72l-56,56
	l1.373,1.373C173.869,69.869,194.131,69.869,206.627,57.373z"/>
<rect x="312" style="fill:#039D7B;" width="64" height="56"/>
<g>
	<path style="fill:#F1E200;" d="M238.656,368.406c-3.016-4.531-10.297-4.531-13.313,0l-18.105,27.156
		c-2.398,3.598-1.074,6.941-0.395,8.215c0.68,1.27,2.727,4.223,7.051,4.223h36.211c4.324,0,6.371-2.953,7.051-4.223
		c0.68-1.273,2.004-4.617-0.395-8.215L238.656,368.406z"/>
	<path style="fill:#F1E200;" d="M376,392h-14.438c1.891,5.271,5.444,9.879,10.426,12.742c2.48,1.43,4.012,4.074,4.012,6.938V424h16
		v-12.32c0-2.863,1.531-5.508,4.012-6.938c4.981-2.863,8.535-7.471,10.426-12.742H392v-16h14.526c-3.313-9.292-12.11-16-22.526-16
		s-19.213,6.708-22.526,16H376V392z"/>
</g>
<polygon style="fill:#2D9CCA;" points="192,160 232,176 272,160 232,96 "/>
<g>
	<path style="fill:#183F5E;" d="M251.969,359.531c-4.461-6.691-11.926-10.688-19.969-10.688s-15.508,3.996-19.969,10.688
		l-18.105,27.156c-4.918,7.379-5.375,16.82-1.188,24.641c4.184,7.816,12.289,12.672,21.156,12.672h36.211
		c8.867,0,16.973-4.855,21.156-12.672c4.188-7.82,3.73-17.262-1.188-24.641L251.969,359.531z M257.156,403.777
		c-0.68,1.27-2.727,4.223-7.051,4.223h-36.211c-4.324,0-6.371-2.953-7.051-4.223c-0.68-1.273-2.004-4.617,0.395-8.215l18.105-27.156
		c3.016-4.531,10.297-4.531,13.313,0l18.105,27.156C259.16,399.16,257.836,402.504,257.156,403.777z"/>
	<path style="fill:#183F5E;" d="M349.656,429.656L360,419.313V432c0,4.418,3.582,8,8,8h32c4.418,0,8-3.582,8-8v-12.688
		l10.344,10.344l11.313-11.313l-12.308-12.308C421.604,399.597,424,391.956,424,384c0-8.139-2.472-15.699-6.664-22.023l12.32-12.32
		l-11.313-11.313l-12.32,12.32C399.699,346.472,392.139,344,384,344s-15.699,2.472-22.023,6.664l-12.32-12.32l-11.313,11.313
		l12.32,12.32C346.472,368.301,344,375.861,344,384c0,7.956,2.396,15.597,6.652,22.036l-12.308,12.308L349.656,429.656z
		 M361.474,376c3.313-9.292,12.11-16,22.526-16s19.213,6.708,22.526,16H392v16h14.438c-1.891,5.271-5.444,9.879-10.426,12.742
		c-2.48,1.43-4.012,4.074-4.012,6.938V424h-16v-12.32c0-2.863-1.531-5.508-4.012-6.938c-4.981-2.863-8.535-7.471-10.426-12.742H376
		v-16H361.474z"/>
	<polygon style="fill:#183F5E;" points="104,344 88,344 88,364.688 80,372.688 72,364.688 72,344 56,344 56,360 40,360 40,376 
		60.688,376 72,387.313 72,396.688 58.344,410.344 69.656,421.656 80,411.313 90.344,421.656 101.656,410.344 88,396.688 
		88,387.313 99.313,376 120,376 120,360 104,360 	"/>
</g>
<g>
</g>
<g>
</g>
<g>
</g>
<g>
</g>
<g>
</g>
<g>
</g>
<g>
</g>
<g>
</g>
<g>
</g>
<g>
</g>
<g>
</g>
<g>
</g>
<g>
</g>
<g>
</g>
<g>
</g>
</svg>
