<?xml version="1.0" encoding="iso-8859-1"?>
<!-- Generator: Adobe Illustrator 19.0.0, SVG Export Plug-In . SVG Version: 6.00 Build 0)  -->
<svg version="1.1" id="Capa_1" xmlns="http://www.w3.org/2000/svg" xmlns:xlink="http://www.w3.org/1999/xlink" x="0px" y="0px"
	 viewBox="0 0 479.999 479.999" style="enable-background:new 0 0 479.999 479.999;" xml:space="preserve">
<g>
	<g>
		<path d="M415.999,48.175c0-0.064,0-0.112,0-0.176v-24C416.047,10.793,405.381,0.048,392.174,0
			c-6.848-0.025-13.378,2.887-17.935,7.999h-238.24c-19.001,0.024-35.373,13.389-39.2,32h-8.8c-22.08,0.026-39.974,17.92-40,40v16
			c0,4.418,3.582,8,8,8h24.648l31.352,368.68c0.354,4.151,3.834,7.335,8,7.32h240c35.346-0.063,63.949-28.767,63.886-64.114
			c-0.05-28.318-18.705-53.237-45.862-61.263l21.328-250.624h24.648c4.418,0,8-3.582,8-8v-16
			C431.971,67.464,426.043,55.674,415.999,48.175z M383.999,23.999c0-4.418,3.582-8,8-8s8,3.582,8,8v16h-16V23.999z M135.999,23.999
			h232v16H113.367C116.77,30.417,125.832,24.011,135.999,23.999z M407.999,415.999c0,26.51-21.49,48-48,48c-26.51,0-48-21.49-48-48
			c0-26.51,21.49-48,48-48c2.72,0.015,5.434,0.264,8.112,0.744C391.135,372.691,407.973,392.64,407.999,415.999z M362.183,352.039
			c-0.352,0-0.696,0-1.048,0s-0.752-0.04-1.136-0.04c-0.68,0-1.336,0.08-2.016,0.104c-1.328,0-2.656,0.08-3.96,0.2
			c-0.56,0.048-1.104,0.128-1.656,0.192c-1.76,0.208-3.504,0.456-5.224,0.8h-0.088c-32.296,6.611-54.253,36.717-50.68,69.488
			c0.08,0.752,0.232,1.472,0.336,2.208c0.208,1.48,0.416,2.952,0.728,4.4c0.184,0.864,0.44,1.696,0.656,2.544
			c0.328,1.28,0.656,2.568,1.064,3.816c0.288,0.888,0.632,1.736,0.96,2.608c0.44,1.168,0.88,2.344,1.392,3.48
			c0.384,0.864,0.8,1.704,1.224,2.544c0.544,1.096,1.104,2.176,1.704,3.2c0.472,0.8,0.976,1.6,1.488,2.4
			c0.64,1.016,1.296,2.008,1.992,2.976c0.552,0.8,1.128,1.544,1.72,2.296c0.728,0.944,1.488,1.848,2.272,2.744
			c0.632,0.72,1.272,1.432,1.928,2.12c0.8,0.864,1.688,1.688,2.568,2.504c0.44,0.416,0.848,0.88,1.304,1.28h-190.4l-30.6-359.904
			h286.576L362.183,352.039z M415.999,87.999h-352v-8c0-13.255,10.745-24,24-24h304c13.255,0,24,10.745,24,24V87.999z"/>
	</g>
</g>
<g>
	<g>
		<path d="M297.873,200.281c-4.25-1.032-8.54,1.54-9.634,5.774l-4.288,17.144l-37.168-59.44c-2.64-3.756-7.825-4.66-11.58-2.02
			c-0.785,0.552-1.468,1.235-2.02,2.02l-16,25.6c-2.334,3.752-1.184,8.685,2.567,11.019c0.003,0.002,0.006,0.004,0.009,0.005
			c3.747,2.342,8.682,1.203,11.024-2.544c0,0,0,0,0,0l9.216-14.744l30.568,48.904h-14.568c-4.418,0-8,3.582-8,8s3.582,8,8,8h32
			c3.669,0,6.868-2.497,7.76-6.056l8-32C304.802,205.649,302.167,201.324,297.873,200.281z"/>
	</g>
</g>
<g>
	<g>
		<path d="M223.767,254.055l-8-32c-0.892-3.562-4.096-6.06-7.768-6.056h-32c-4.418,0-8,3.582-8,8s3.582,8,8,8h14.568l-37.352,59.76
			c-2.342,3.747-1.203,8.682,2.544,11.024c1.271,0.795,2.741,1.216,4.24,1.216h32c4.418,0,8-3.582,8-8s-3.582-8-8-8h-17.6
			l29.512-47.2l4.296,17.168c0.904,3.562,4.118,6.049,7.792,6.032c0.658,0.003,1.314-0.078,1.952-0.24
			C222.237,262.685,224.841,258.341,223.767,254.055z"/>
	</g>
</g>
<g>
	<g>
		<path d="M326.655,291.559l-16-24c-2.451-3.676-7.418-4.669-11.094-2.217c-0.001,0-0.001,0.001-0.002,0.001
			c-3.676,2.451-4.668,7.418-2.217,11.094c0,0.001,0.001,0.001,0.001,0.002l7.704,11.56h-61.736l10.344-10.344
			c3.07-3.178,2.982-8.242-0.196-11.312c-3.1-2.995-8.016-2.995-11.116,0l-24,24c-3.123,3.124-3.123,8.188,0,11.312l24,24
			c3.178,3.07,8.242,2.982,11.312-0.196c2.995-3.1,2.995-8.016,0-11.116l-10.344-10.344h76.688c4.418,0.001,8.001-3.581,8.001-7.999
			C328.001,294.419,327.533,292.874,326.655,291.559z"/>
	</g>
</g>
<g>
	<g>
		<path d="M359.999,391.999c-13.255,0-24,10.745-24,24s10.745,24,24,24s24-10.745,24-24S373.254,391.999,359.999,391.999z
			 M359.999,423.999c-4.418,0-8-3.582-8-8s3.582-8,8-8s8,3.582,8,8S364.418,423.999,359.999,423.999z"/>
	</g>
</g>
<g>
</g>
<g>
</g>
<g>
</g>
<g>
</g>
<g>
</g>
<g>
</g>
<g>
</g>
<g>
</g>
<g>
</g>
<g>
</g>
<g>
</g>
<g>
</g>
<g>
</g>
<g>
</g>
<g>
</g>
</svg>
