<?xml version="1.0" encoding="iso-8859-1"?>
<!-- Generator: Adobe Illustrator 19.0.0, SVG Export Plug-In . SVG Version: 6.00 Build 0)  -->
<svg version="1.1" id="Capa_1" xmlns="http://www.w3.org/2000/svg" xmlns:xlink="http://www.w3.org/1999/xlink" x="0px" y="0px"
	 viewBox="0 0 480 480" style="enable-background:new 0 0 480 480;" xml:space="preserve">
<g>
	<g>
		<path d="M472,280h-2.047l-22.289-74.297C446.648,202.316,443.531,200,440,200h-24h-64h-24c-3.535,0-6.648,2.316-7.664,5.703
			l-8.334,27.795l-8.337-27.795C302.648,202.316,299.535,200,296,200h-24h-64h-24c-3.531,0-6.648,2.316-7.664,5.703l-8.338,27.793
			l-8.334-27.793C158.648,202.316,155.535,200,152,200h-24H64H40c-3.531,0-6.648,2.316-7.664,5.703L10.047,280H8
			c-4.418,0-8,3.582-8,8v32c0,4.418,3.582,8,8,8v144c0,4.418,3.582,8,8,8h144h160h144c4.418,0,8-3.582,8-8V328c4.418,0,8-3.582,8-8
			v-32C480,283.582,476.418,280,472,280z M72,216h48v32H72V216z M16,296h128v16H16V296z M152,464H24V328h128V464z M154.047,280H152
			H26.754l19.199-64H56v40c0,4.418,3.582,8,8,8h64c4.418,0,8-3.582,8-8v-40h10.047l13.597,45.344L154.047,280z M216,216h48v32h-48
			V216z M171.24,278.38l4.42-14.72c0.003-0.01,0.001-0.02,0.004-0.03L189.953,216H200v40c0,4.418,3.582,8,8,8h64
			c4.418,0,8-3.582,8-8v-40h10.047l14.289,47.63c0.003,0.01,0.001,0.02,0.004,0.03l4.42,14.72l0.486,1.62H170.754L171.24,278.38z
			 M312,464H168V328h144V464z M320,312H160v-16h160V312z M360,216h48v32h-48V216z M320.355,261.347L333.953,216H344v40
			c0,4.418,3.582,8,8,8h64c4.418,0,8-3.582,8-8v-40h10.047l19.199,64H328h-2.049L320.355,261.347z M456,464H328V328h128V464z
			 M464,312H336v-16h128V312z"/>
	</g>
</g>
<g>
	<g>
		<path d="M384,0h-64h-96c-2.121,0-4.156,0.844-5.656,2.344l-56,56c-3.125,3.125-3.125,8.188,0,11.313l1.371,1.371
			c15.594,15.602,40.977,15.602,56.57,0L235.313,56h15.129c-2.754,10.238-0.117,21.637,7.902,29.656l8,8
			C267.906,95.219,269.953,96,272,96s4.094-0.781,5.656-2.344L299.313,72H320h64c4.418,0,8-3.582,8-8V8C392,3.582,388.418,0,384,0z
			 M312,56h-16c-2.121,0-4.156,0.844-5.656,2.344L272,76.688l-2.344-2.344c-5.703-5.703-5.703-14.984,0-20.688
			c2.289-2.289,2.973-5.727,1.734-8.719C270.152,41.949,267.234,40,264,40h-32c-2.121,0-4.156,0.844-5.656,2.344l-17.371,17.371
			c-7.605,7.605-20.09,9.051-29.117,3.742L227.313,16H312V56z M376,56h-48V16h48V56z"/>
	</g>
</g>
<g>
	<g>
		<path d="M278.074,394.688l-18.105-27.156c-4.461-6.691-11.926-10.688-19.969-10.688s-15.508,3.996-19.969,10.688l-18.105,27.156
			c-4.918,7.379-5.375,16.82-1.188,24.641c4.184,7.816,12.289,12.672,21.156,12.672h36.211c8.867,0,16.973-4.855,21.156-12.672
			C283.449,411.508,282.992,402.066,278.074,394.688z M265.156,411.777c-0.68,1.27-2.727,4.223-7.051,4.223h-36.211
			c-4.324,0-6.371-2.953-7.051-4.223c-0.68-1.273-2.004-4.617,0.395-8.215l18.105-27.156c3.016-4.531,10.297-4.531,13.313,0
			l18.105,27.156C267.16,407.16,265.836,410.504,265.156,411.777z"/>
	</g>
</g>
<g>
	<g>
		<path d="M432,392c0-8.139-2.472-15.699-6.664-22.023l12.32-12.32l-11.313-11.313l-12.32,12.32
			C407.699,354.472,400.139,352,392,352s-15.699,2.472-22.023,6.664l-12.32-12.32l-11.313,11.313l12.32,12.32
			C354.472,376.301,352,383.861,352,392c0,7.956,2.396,15.597,6.652,22.036l-12.308,12.308l11.313,11.313L368,427.313V440
			c0,4.418,3.582,8,8,8h32c4.418,0,8-3.582,8-8v-12.688l10.344,10.344l11.313-11.313l-12.308-12.308
			C429.604,407.597,432,399.956,432,392z M414.438,400c-1.891,5.271-5.444,9.879-10.426,12.742c-2.48,1.43-4.012,4.074-4.012,6.938
			V432h-16v-12.32c0-2.863-1.531-5.508-4.012-6.938c-4.981-2.863-8.535-7.471-10.426-12.742H384v-16h-14.526
			c3.313-9.292,12.11-16,22.526-16s19.213,6.708,22.526,16H400v16H414.438z"/>
	</g>
</g>
<g>
	<g>
		<polygon points="107.313,384 128,384 128,368 112,368 112,352 96,352 96,372.688 88,380.688 80,372.688 80,352 64,352 64,368 
			48,368 48,384 68.688,384 80,395.313 80,404.688 66.344,418.344 77.656,429.656 88,419.313 98.344,429.656 109.656,418.344 
			96,404.688 96,395.313 		"/>
	</g>
</g>
<g>
	<g>
		<path d="M286.785,163.762l-40-64c-2.93-4.68-10.641-4.68-13.57,0l-40,64c-1.254,2.008-1.555,4.473-0.82,6.723
			c0.738,2.254,2.434,4.063,4.633,4.945l40,16c0.957,0.379,1.965,0.57,2.973,0.57s2.016-0.191,2.973-0.57l40-16
			c2.199-0.883,3.895-2.691,4.633-4.945C288.34,168.234,288.039,165.77,286.785,163.762z M248,172.183V152h-16v20.183l-20.145-8.058
			L240,119.094l28.145,45.031L248,172.183z"/>
	</g>
</g>
<g>
</g>
<g>
</g>
<g>
</g>
<g>
</g>
<g>
</g>
<g>
</g>
<g>
</g>
<g>
</g>
<g>
</g>
<g>
</g>
<g>
</g>
<g>
</g>
<g>
</g>
<g>
</g>
<g>
</g>
</svg>
