<?xml version="1.0" encoding="iso-8859-1"?>
<!-- Generator: Adobe Illustrator 19.0.0, SVG Export Plug-In . SVG Version: 6.00 Build 0)  -->
<svg version="1.1" id="Capa_1" xmlns="http://www.w3.org/2000/svg" xmlns:xlink="http://www.w3.org/1999/xlink" x="0px" y="0px"
	 viewBox="0 0 512 512" style="enable-background:new 0 0 512 512;" xml:space="preserve">
<path style="fill:#A8D3D8;" d="M129.565,197.396H62.693c-8.283,0-14.998,6.715-14.998,14.998v251.209
	c0,3.981,1.583,7.798,4.399,10.611l33.437,33.399C88.459,510.537,92.295,512,96.13,512s7.672-1.462,10.599-4.387l33.435-33.399
	c2.816-2.813,4.399-6.631,4.399-10.611V212.394C144.563,204.111,137.848,197.396,129.565,197.396z"/>
<path style="fill:#F0F0F0;" d="M96.129,197.396H62.693c-8.283,0-14.998,6.715-14.998,14.998v251.209
	c0,3.981,1.583,7.798,4.399,10.611l33.437,33.399C88.459,510.537,92.295,512,96.13,512L96.129,197.396z"/>
<path style="fill:#C2132C;" d="M365.123,185.506l95.814-117.612c3.97-4.874,4.48-11.706,1.276-17.115
	c-3.203-5.409-9.439-8.246-15.621-7.108c-74.219,13.668-131.458-3.866-186.814-20.821C194.281,2.787,132.416-16.163,55.985,22.052
	c-5.081,2.541-8.291,7.734-8.291,13.415v250.695c0,5.198,2.691,10.025,7.113,12.758c4.42,2.733,9.941,2.982,14.592,0.657
	c65.704-32.851,119.409-16.399,181.594,2.648c41.978,12.858,88.148,27.001,142.882,27c18.364,0,37.694-1.593,58.15-5.359
	c5.25-0.967,9.591-4.652,11.397-9.676s0.807-10.629-2.627-14.718L365.123,185.506z"/>
<path style="fill:#FF3F5C;" d="M248.675,19.46c-61.452-18.637-120.59-33.457-192.689,2.593c-5.081,2.541-8.291,7.734-8.291,13.415
	v250.695c0,5.198,2.691,10.025,7.113,12.758c4.42,2.733,9.941,2.982,14.592,0.657c64.886-32.442,118.07-16.801,179.275,1.938V19.46z
	"/>
<g>
</g>
<g>
</g>
<g>
</g>
<g>
</g>
<g>
</g>
<g>
</g>
<g>
</g>
<g>
</g>
<g>
</g>
<g>
</g>
<g>
</g>
<g>
</g>
<g>
</g>
<g>
</g>
<g>
</g>
</svg>
