<?xml version="1.0" encoding="iso-8859-1"?>
<!-- Generator: Adobe Illustrator 19.0.0, SVG Export Plug-In . SVG Version: 6.00 Build 0)  -->
<svg version="1.1" id="Capa_1" xmlns="http://www.w3.org/2000/svg" xmlns:xlink="http://www.w3.org/1999/xlink" x="0px" y="0px"
	 viewBox="0 0 512 512" style="enable-background:new 0 0 512 512;" xml:space="preserve">
<path style="fill:#303C42;" d="M202.754,320h-57.406l19.51-39.021l33.125,16.563c3.969,2.01,8.802,1.302,12.052-1.74
	s4.281-7.792,2.563-11.906l-53.333-128c-1.656-3.969-5.542-6.563-9.844-6.563H10.754c-4.312,0-8.208,2.594-9.854,6.583
	c-1.656,3.99-0.74,8.573,2.312,11.625l37.229,37.229L5.056,275.542c-7.094,14.198-6.344,30.729,2,44.229
	c2.208,3.594,4.865,6.792,7.854,9.563l74.656,107.833c13.938,20.135,36.885,32.167,61.385,32.167h51.802
	c5.896,0,10.667-4.771,10.667-10.667v-128C213.421,324.771,208.65,320,202.754,320z"/>
<path style="fill:#7CB342;" d="M30.868,314.906l-0.958-0.781c-1.813-1.583-3.406-3.448-4.708-5.563
	c-4.438-7.167-4.833-15.948-1.063-23.479l38.823-77.646c2.052-4.104,1.25-9.063-2-12.313l-24.458-24.458h105.802l39.573,94.969
	l-17.021-8.51c-5.281-2.625-11.667-0.5-14.313,4.771L121.493,320H45.723C40.223,320,35.035,318.177,30.868,314.906z"/>
<path style="opacity:0.1;enable-background:new    ;" d="M64.622,318.391c-5.5,0-10.688-1.823-14.854-5.094l-0.958-0.781
	c-1.813-1.583-3.406-3.448-4.708-5.563c-4.438-7.167-4.833-15.948-1.063-23.479l38.823-77.646c2.052-4.104,1.25-9.063-2-12.313
	l-22.849-22.849H36.504l24.458,24.458c3.25,3.25,4.052,8.208,2,12.313l-38.823,77.646c-3.771,7.531-3.375,16.313,1.063,23.479
	c1.302,2.115,2.896,3.979,4.708,5.563l0.958,0.781c4.167,3.271,9.354,5.094,14.854,5.094h75.771l0.805-1.609H64.622z"/>
<path style="fill:#689F38;" d="M192.087,448h-41.135c-17.5,0-33.885-8.594-43.844-22.979L49.16,341.333h142.927V448z"/>
<path style="fill:#303C42;" d="M506.879,275.094l-49.49-88.313c-2.875-5.135-9.354-6.99-14.479-4.104l-96,53.333
	c-2.563,1.417-4.417,3.823-5.156,6.656c-0.729,2.833-0.26,5.844,1.292,8.323L386.171,320h-44.75v-32
	c0-4.625-2.979-8.719-7.365-10.146c-4.385-1.438-9.208,0.135-11.927,3.875l-85.333,117.333c-2.948,4.052-2.677,9.615,0.656,13.354
	l85.333,96c2.063,2.323,4.979,3.583,7.969,3.583c1.271,0,2.552-0.229,3.792-0.698c4.135-1.573,6.875-5.542,6.875-9.969v-32h19.802
	c24.5,0,47.448-12.031,61.385-32.167c0,0,80.342-113.889,82.51-117.396C513.462,306.271,514.212,289.74,506.879,275.094z"/>
<path style="fill:#689F38;" d="M405.066,425.021C395.108,439.406,378.723,448,361.223,448h-30.469
	c-5.896,0-10.667,4.771-10.667,10.667v14.615l-60.99-68.615l60.99-83.865v9.865c0,5.896,4.771,10.667,10.667,10.667h132.254
	L405.066,425.021z"/>
<path style="fill:#7CB342;" d="M486.973,308.563c-0.578,0.935-5.349,5.884-5.349,5.884c-4.233,3.47-9.483,5.553-15.172,5.553
	h-55.115l-44.25-70.792l76.896-42.719l44.052,78.594C491.806,292.615,491.41,301.396,486.973,308.563z"/>
<path style="opacity:0.1;enable-background:new    ;" d="M488.035,285.083l-44.052-78.594l-7.505,4.169l35.923,64.091
	c3.771,7.531,3.375,16.313-1.063,23.479c-0.578,0.935-5.349,5.884-5.349,5.884c-4.233,3.47-9.483,5.553-15.172,5.553h-45.94
	l6.46,10.333h55.115c5.689,0,10.939-2.083,15.172-5.553c0,0,4.771-4.949,5.349-5.884
	C491.41,301.396,491.806,292.615,488.035,285.083z"/>
<path style="fill:#303C42;" d="M293.691,134.604l-31.708,15.854c-4.104,2.052-6.438,6.5-5.792,11.052
	c0.656,4.542,4.135,8.167,8.656,8.979l117.333,21.333c0.635,0.125,1.281,0.177,1.906,0.177c4.25,0,8.167-2.542,9.844-6.563
	l53.333-128c1.719-4.115,0.688-8.865-2.563-11.906c-3.26-3.052-8.073-3.729-12.052-1.74l-34.24,17.125L373.629,23.75
	C363.712,8.875,347.129,0,329.254,0c0,0-133.979,0.427-137.833,0.344c-22.948-0.729-44.323,9.854-58.188,28.354L87.556,89.604
	c-1.865,2.469-2.552,5.635-1.896,8.656c0.656,3.031,2.604,5.625,5.323,7.104l117.333,64c4.76,2.635,10.677,1.229,13.781-3.167
	l47.552-66.563L293.691,134.604z"/>
<path style="fill:#689F38;" d="M329.254,21.333c10.719,0,20.677,5.323,26.625,14.25l30,45c3,4.479,8.833,6.031,13.646,3.625
	l17.021-8.51l-39,93.604l-77.396-14.073l14.042-7.021c2.76-1.385,4.792-3.885,5.563-6.875c0.771-2.99,0.208-6.167-1.542-8.708
	L248.4,31.073c-2.417-3.521-5.104-6.771-8.01-9.74H329.254z"/>
<path style="opacity:0.2;fill:#FFFFFF;enable-background:new    ;" d="M249.962,33.346h79.292c10.719,0,20.677,5.323,26.625,14.25
	l30,45c3,4.479,8.833,6.031,13.646,3.625l10.698-5.349l6.323-15.174l-17.021,8.51c-4.813,2.406-10.646,0.854-13.646-3.625l-30-45
	c-5.948-8.927-15.906-14.25-26.625-14.25h-88.865c2.906,2.969,5.594,6.219,8.01,9.74L249.962,33.346z"/>
<path style="fill:#7CB342;" d="M210.233,146.115l-98.219-53.573l38.281-51.052c9.698-12.917,24.24-20.417,40.688-19.813
	c16.156,0.333,30.677,8.156,39.833,21.479l25.969,37.781L210.233,146.115z"/>
<path style="opacity:0.1;enable-background:new    ;" d="M145.034,64.677c9.698-12.917,24.24-20.417,40.688-19.813
	c16.156,0.333,30.677,8.156,39.833,21.479l20.427,29.719l10.803-15.125l-25.969-37.781c-9.156-13.323-23.677-21.146-39.833-21.479
	c-16.448-0.604-30.99,6.896-40.688,19.813l-38.281,51.052l8.605,4.694L145.034,64.677z"/>
<linearGradient id="SVGID_1_" gradientUnits="userSpaceOnUse" x1="-46.0613" y1="640.4625" x2="-23.6932" y2="630.0289" gradientTransform="matrix(21.3333 0 0 -21.3333 996.3334 13791.667)">
	<stop  offset="0" style="stop-color:#FFFFFF;stop-opacity:0.2"/>
	<stop  offset="1" style="stop-color:#FFFFFF;stop-opacity:0"/>
</linearGradient>
<path style="fill:url(#SVGID_1_);" d="M202.754,320h-57.406l19.51-39.021l33.125,16.563c3.969,2.01,8.802,1.302,12.052-1.74
	s4.281-7.792,2.563-11.906l-53.333-128c-1.656-3.969-5.542-6.563-9.844-6.563H10.754c-4.312,0-8.208,2.594-9.854,6.583
	c-1.656,3.99-0.74,8.573,2.312,11.625l37.229,37.229L5.056,275.542c-7.094,14.198-6.344,30.729,2,44.229
	c2.208,3.594,4.865,6.792,7.854,9.563l74.656,107.833c13.938,20.135,36.885,32.167,61.385,32.167h51.802
	c5.896,0,10.667-4.771,10.667-10.667v-128C213.421,324.771,208.65,320,202.754,320z M506.879,275.094l-49.49-88.313
	c-2.875-5.135-9.354-6.99-14.479-4.104l-96,53.333c-2.563,1.417-4.417,3.823-5.156,6.656c-0.729,2.833-0.26,5.844,1.292,8.323
	L386.171,320h-44.75v-32c0-4.625-2.979-8.719-7.365-10.146c-4.385-1.438-9.208,0.135-11.927,3.875l-85.333,117.333
	c-2.948,4.052-2.677,9.615,0.656,13.354l85.333,96c2.063,2.323,4.979,3.583,7.969,3.583c1.271,0,2.552-0.229,3.792-0.698
	c4.135-1.573,6.875-5.542,6.875-9.969v-32h19.802c24.5,0,47.448-12.031,61.385-32.167c0,0,80.342-113.889,82.51-117.396
	C513.462,306.271,514.212,289.74,506.879,275.094z M293.691,134.604l-31.708,15.854c-4.104,2.052-6.438,6.5-5.792,11.052
	c0.656,4.542,4.135,8.167,8.656,8.979l117.333,21.333c0.635,0.125,1.281,0.177,1.906,0.177c4.25,0,8.167-2.542,9.844-6.563
	l53.333-128c1.719-4.115,0.688-8.865-2.563-11.906c-3.26-3.052-8.073-3.729-12.052-1.74l-34.24,17.125L373.629,23.75
	C363.712,8.875,347.129,0,329.254,0c0,0-133.979,0.427-137.833,0.344c-22.948-0.729-44.323,9.854-58.188,28.354L87.556,89.604
	c-1.865,2.469-2.552,5.635-1.896,8.656c0.656,3.031,2.604,5.625,5.323,7.104l117.333,64c4.76,2.635,10.677,1.229,13.781-3.167
	l47.552-66.563L293.691,134.604z"/>
<g>
</g>
<g>
</g>
<g>
</g>
<g>
</g>
<g>
</g>
<g>
</g>
<g>
</g>
<g>
</g>
<g>
</g>
<g>
</g>
<g>
</g>
<g>
</g>
<g>
</g>
<g>
</g>
<g>
</g>
</svg>
