<?xml version="1.0" encoding="iso-8859-1"?>
<!-- Generator: Adobe Illustrator 19.0.0, SVG Export Plug-In . SVG Version: 6.00 Build 0)  -->
<svg version="1.1" id="Layer_1" xmlns="http://www.w3.org/2000/svg" xmlns:xlink="http://www.w3.org/1999/xlink" x="0px" y="0px"
	 viewBox="0 0 512 512" style="enable-background:new 0 0 512 512;" xml:space="preserve">
<g>
	<g>
		<g>
			<path d="M202.754,320h-57.406l19.51-39.021l33.125,16.563c3.969,2.01,8.802,1.302,12.052-1.74
				c3.25-3.042,4.281-7.792,2.563-11.906l-53.333-128c-1.656-3.969-5.542-6.563-9.844-6.563H10.754
				c-4.313,0-8.208,2.594-9.854,6.583c-1.656,3.99-0.74,8.573,2.313,11.625l37.229,37.229L5.056,275.542
				c-7.094,14.198-6.344,30.729,2,44.229c2.208,3.594,4.865,6.792,7.854,9.563l74.656,107.833
				c13.938,20.135,36.885,32.167,61.385,32.167h51.802c5.896,0,10.667-4.771,10.667-10.667v-128
				C213.42,324.771,208.65,320,202.754,320z M30.868,314.906l-0.958-0.781c-1.813-1.583-3.406-3.448-4.708-5.563
				c-4.438-7.167-4.833-15.948-1.063-23.479l38.823-77.646c2.052-4.104,1.25-9.063-2-12.313l-24.458-24.458h105.802l39.573,94.969
				l-17.021-8.51c-5.281-2.625-11.667-0.5-14.313,4.771L121.493,320H45.723C40.223,320,35.035,318.177,30.868,314.906z M192.087,448
				h-41.135c-17.5,0-33.885-8.594-43.844-22.979L49.16,341.333h142.927V448z"/>
			<path d="M506.879,275.094l-49.49-88.313c-2.875-5.135-9.354-6.99-14.479-4.104l-96,53.333c-2.563,1.417-4.417,3.823-5.156,6.656
				c-0.729,2.833-0.26,5.844,1.292,8.323L386.171,320h-44.75v-32c0-4.625-2.979-8.719-7.365-10.146
				c-4.385-1.438-9.208,0.135-11.927,3.875l-85.333,117.333c-2.948,4.052-2.677,9.615,0.656,13.354l85.333,96
				c2.063,2.323,4.979,3.583,7.969,3.583c1.271,0,2.552-0.229,3.792-0.698c4.135-1.573,6.875-5.542,6.875-9.969v-32h19.802
				c24.5,0,47.448-12.031,61.385-32.167c0,0,80.342-113.889,82.51-117.396C513.462,306.271,514.212,289.74,506.879,275.094z
				 M405.066,425.021C395.108,439.406,378.723,448,361.223,448h-30.469c-5.896,0-10.667,4.771-10.667,10.667v14.615l-60.99-68.615
				l60.99-83.865v9.865c0,5.896,4.771,10.667,10.667,10.667h132.254L405.066,425.021z M486.973,308.563
				c-0.578,0.935-5.349,5.884-5.349,5.884c-4.233,3.47-9.483,5.553-15.172,5.553h-55.115l-44.25-70.792l76.896-42.719l44.052,78.594
				C491.806,292.615,491.41,301.396,486.973,308.563z"/>
			<path d="M293.691,134.604l-31.708,15.854c-4.104,2.052-6.438,6.5-5.792,11.052c0.656,4.542,4.135,8.167,8.656,8.979
				l117.333,21.333c0.635,0.125,1.281,0.177,1.906,0.177c4.25,0,8.167-2.542,9.844-6.563l53.333-128
				c1.719-4.115,0.688-8.865-2.563-11.906c-3.26-3.052-8.073-3.729-12.052-1.74l-34.24,17.125L373.629,23.75
				C363.712,8.875,347.129,0,329.254,0c0,0-133.979,0.427-137.833,0.344c-22.948-0.729-44.323,9.854-58.187,28.354L87.556,89.604
				c-1.865,2.469-2.552,5.635-1.896,8.656c0.656,3.031,2.604,5.625,5.323,7.104l117.333,64c4.76,2.635,10.677,1.229,13.781-3.167
				l47.552-66.563L293.691,134.604z M329.254,21.333c10.719,0,20.677,5.323,26.625,14.25l30,45c3,4.479,8.833,6.031,13.646,3.625
				l17.021-8.51l-39,93.604l-77.396-14.073l14.042-7.021c2.76-1.385,4.792-3.885,5.563-6.875c0.771-2.99,0.208-6.167-1.542-8.708
				L248.4,31.073c-2.417-3.521-5.104-6.771-8.01-9.74H329.254z M210.233,146.115l-98.219-53.573l38.281-51.052
				c9.698-12.917,24.24-20.417,40.687-19.813c16.156,0.333,30.677,8.156,39.833,21.479l25.969,37.781L210.233,146.115z"/>
		</g>
	</g>
</g>
<g>
</g>
<g>
</g>
<g>
</g>
<g>
</g>
<g>
</g>
<g>
</g>
<g>
</g>
<g>
</g>
<g>
</g>
<g>
</g>
<g>
</g>
<g>
</g>
<g>
</g>
<g>
</g>
<g>
</g>
</svg>
