<?xml version="1.0" encoding="iso-8859-1"?>
<!-- Generator: Adobe Illustrator 19.0.0, SVG Export Plug-In . SVG Version: 6.00 Build 0)  -->
<svg version="1.1" id="Capa_1" xmlns="http://www.w3.org/2000/svg" xmlns:xlink="http://www.w3.org/1999/xlink" x="0px" y="0px"
	 viewBox="0 0 512.092 512.092" style="enable-background:new 0 0 512.092 512.092;" xml:space="preserve">
<g>
	<g>
		<g>
			<path d="M504.046,312h-192c-4.418,0-8,3.582-8,8H250.11c-14.387,0.018-26.046,11.677-26.064,26.064V352c0,4.418,3.582,8,8,8
				h1.312l-3.608,43.256c-8.406,4.514-13.665,13.267-13.704,22.808V472c0,4.418,3.582,8,8,8h8.408
				c2.045,19.661,19.641,33.942,39.302,31.898c16.838-1.751,30.146-15.06,31.898-31.898h0.392c0,4.418,3.582,8,8,8h113.888
				c6.316,18.199,26.189,27.832,44.388,21.516c10.087-3.501,18.015-11.429,21.516-21.516h12.208c4.418,0,8-3.582,8-8V320
				C512.046,315.582,508.465,312,504.046,312z M268.046,496c-11.046,0-20-8.954-20-20c0-11.046,8.954-20,20-20
				c11.046,0,20,8.954,20,20C288.046,487.046,279.092,496,268.046,496z M304.046,464h-2.208c-5.055-14.341-18.586-23.951-33.792-24
				c-15.206,0.049-28.737,9.659-33.792,24h-2.208v-37.936c0.004-5.556,4.508-10.06,10.064-10.064h61.936V464z M304.046,400h-57.968
				l3.328-40h54.64V400z M304.046,344h-63.792c0.986-4.659,5.094-7.994,9.856-8h53.936V344z M477.982,476.344
				c-0.009,10.546-8.558,19.092-19.104,19.096c-10.551,0-19.104-8.553-19.104-19.104s8.553-19.104,19.104-19.104
				s19.104,8.553,19.104,19.104C477.982,476.339,477.982,476.341,477.982,476.344z M496.046,472h-2.504
				c-2.294-19.14-19.669-32.796-38.81-30.503c-15.985,1.916-28.587,14.517-30.503,30.503H320.046V328h176V472z"/>
			<path d="M80.046,216c2.401-0.002,4.674-1.083,6.192-2.944c7.56-9.256,73.808-91.632,73.808-133.056c0-44.183-35.817-80-80-80
				s-80,35.817-80,80c0,41.424,66.248,123.8,73.808,133.056C75.372,214.917,77.645,215.998,80.046,216z M80.046,16
				c35.33,0.04,63.96,28.67,64,64c0,27.448-41.672,86.536-64,115.2c-22.328-28.664-64-87.752-64-115.2
				C16.086,44.67,44.716,16.04,80.046,16z"/>
			<path d="M124.046,72.8c0-24.301-19.699-44-44-44s-44,19.699-44,44s19.699,44,44,44C104.336,116.774,124.02,97.09,124.046,72.8z
				 M52.046,72.8c0-15.464,12.536-28,28-28s28,12.536,28,28s-12.536,28-28,28S52.046,88.264,52.046,72.8z"/>
			<path d="M216.046,248c-4.418,0-8,3.582-8,8s3.582,8,8,8h16c4.418,0,8-3.582,8-8s-3.582-8-8-8H216.046z"/>
			<path d="M264.046,248c-4.418,0-8,3.582-8,8s3.582,8,8,8h16c4.418,0,8-3.582,8-8s-3.582-8-8-8H264.046z"/>
			<path d="M256.046,176h16c4.418,0,8-3.582,8-8s-3.582-8-8-8h-16c-4.418,0-8,3.582-8,8S251.628,176,256.046,176z"/>
			<path d="M208.046,176h16c4.418,0,8-3.582,8-8s-3.582-8-8-8h-16c-4.418,0-8,3.582-8,8S203.628,176,208.046,176z"/>
			<path d="M176.046,208c0-4.418-3.582-8-8-8s-8,3.582-8,8v16c0,4.418,3.582,8,8,8s8-3.582,8-8V208z"/>
			<path d="M160.046,176c0,4.418,3.582,8,8,8s8-3.582,8-8c4.418,0,8-3.582,8-8s-3.582-8-8-8h-8c-4.418,0-8,3.582-8,8V176z"/>
			<path d="M448.046,176h16c4.418,0,8-3.582,8-8s-3.582-8-8-8h-16c-4.418,0-8,3.582-8,8S443.628,176,448.046,176z"/>
			<path d="M168.046,248h-16c-4.418,0-8,3.582-8,8s3.582,8,8,8h16c4.418,0,8-3.582,8-8S172.465,248,168.046,248z"/>
			<path d="M456.046,248c-4.418,0-8,3.582-8,8s3.582,8,8,8h16c4.418,0,8-3.582,8-8s-3.582-8-8-8H456.046z"/>
			<path d="M488.046,200c4.418,0,8-3.582,8-8v-16c0-4.418-3.582-8-8-8s-8,3.582-8,8v16C480.046,196.418,483.628,200,488.046,200z"/>
			<path d="M408.046,248c-4.418,0-8,3.582-8,8s3.582,8,8,8h16c4.418,0,8-3.582,8-8s-3.582-8-8-8H408.046z"/>
			<path d="M304.046,176h16c4.418,0,8-3.582,8-8s-3.582-8-8-8h-16c-4.418,0-8,3.582-8,8S299.628,176,304.046,176z"/>
			<path d="M488.046,248c4.418,0,8-3.582,8-8v-16c0-4.418-3.582-8-8-8s-8,3.582-8,8v16C480.046,244.418,483.628,248,488.046,248z"/>
			<path d="M352.046,176h16c4.418,0,8-3.582,8-8s-3.582-8-8-8h-16c-4.418,0-8,3.582-8,8S347.628,176,352.046,176z"/>
			<path d="M312.046,248c-4.418,0-8,3.582-8,8s3.582,8,8,8h16c4.418,0,8-3.582,8-8s-3.582-8-8-8H312.046z"/>
			<path d="M360.046,248c-4.418,0-8,3.582-8,8s3.582,8,8,8h16c4.418,0,8-3.582,8-8s-3.582-8-8-8H360.046z"/>
			<path d="M400.046,176h16c4.418,0,8-3.582,8-8s-3.582-8-8-8h-16c-4.418,0-8,3.582-8,8S395.628,176,400.046,176z"/>
			<path d="M8.046,344c0,4.418,3.582,8,8,8s8-3.582,8-8v-16c0-4.418-3.582-8-8-8s-8,3.582-8,8V344z"/>
			<path d="M104.046,456c0-4.418-3.582-8-8-8s-8,3.582-8,8v8c0,4.418,3.582,8,8,8h8c4.418,0,8-3.582,8-8S108.465,456,104.046,456z"
				/>
			<path d="M152.046,456h-16c-4.418,0-8,3.582-8,8s3.582,8,8,8h16c4.418,0,8-3.582,8-8S156.465,456,152.046,456z"/>
			<path d="M160.046,416h-16c-4.418,0-8,3.582-8,8s3.582,8,8,8h16c4.418,0,8-3.582,8-8S164.465,416,160.046,416z"/>
			<path d="M112.046,416h-16c-4.418,0-8,3.582-8,8s3.582,8,8,8h16c4.418,0,8-3.582,8-8S116.465,416,112.046,416z"/>
			<path d="M160.046,368c-4.418,0-8,3.582-8,8v16c0,4.418,3.582,8,8,8s8-3.582,8-8v-16C168.046,371.582,164.465,368,160.046,368z"/>
			<path d="M216.046,280c0-4.418-3.582-8-8-8s-8,3.582-8,8v16c0,4.418,3.582,8,8,8s8-3.582,8-8V280z"/>
			<path d="M200.046,456h-16c-4.418,0-8,3.582-8,8s3.582,8,8,8h16c4.418,0,8-3.582,8-8S204.465,456,200.046,456z"/>
			<path d="M192.046,304c0-4.418-3.582-8-8-8h-16c-4.418,0-8,3.582-8,8s3.582,8,8,8h16C188.465,312,192.046,308.418,192.046,304z"/>
			<path d="M80.046,368h-16c-4.418,0-8,3.582-8,8s3.582,8,8,8h16c4.418,0,8-3.582,8-8S84.465,368,80.046,368z"/>
			<path d="M144.046,304c0-4.418-3.582-8-8-8h-16c-4.418,0-8,3.582-8,8s3.582,8,8,8h16C140.465,312,144.046,308.418,144.046,304z"/>
			<path d="M112.046,384h16c4.418,0,8-3.582,8-8s-3.582-8-8-8h-16c-4.418,0-8,3.582-8,8S107.628,384,112.046,384z"/>
			<path d="M64.046,304c0,4.418,3.582,8,8,8h16c4.418,0,8-3.582,8-8s-3.582-8-8-8h-16C67.628,296,64.046,299.582,64.046,304z"/>
			<path d="M128.046,256c0-4.418-3.582-8-8-8h-16c-4.418,0-8,3.582-8,8s3.582,8,8,8h16C124.465,264,128.046,260.418,128.046,256z"/>
			<path d="M88.046,248v-16c0-4.418-3.582-8-8-8s-8,3.582-8,8v16c0,4.418,3.582,8,8,8S88.046,252.418,88.046,248z"/>
			<path d="M40.046,296h-16c-4.418,0-8,3.582-8,8s3.582,8,8,8h16c4.418,0,8-3.582,8-8S44.465,296,40.046,296z"/>
			<path d="M32.046,368h-16c-4.418,0-8,3.582-8,8s3.582,8,8,8h16c4.418,0,8-3.582,8-8S36.465,368,32.046,368z"/>
		</g>
	</g>
</g>
<g>
</g>
<g>
</g>
<g>
</g>
<g>
</g>
<g>
</g>
<g>
</g>
<g>
</g>
<g>
</g>
<g>
</g>
<g>
</g>
<g>
</g>
<g>
</g>
<g>
</g>
<g>
</g>
<g>
</g>
</svg>
