<?xml version="1.0" encoding="iso-8859-1"?>
<!-- Generator: Adobe Illustrator 19.0.0, SVG Export Plug-In . SVG Version: 6.00 Build 0)  -->
<svg version="1.1" id="Capa_1" xmlns="http://www.w3.org/2000/svg" xmlns:xlink="http://www.w3.org/1999/xlink" x="0px" y="0px"
	 viewBox="0 0 384 384" style="enable-background:new 0 0 384 384;" xml:space="preserve">
<path style="fill:#4DD0E1;" d="M231.84,304c-14.24-21.12-27.84-44.24-34.88-64c-3.12-8.88-4.96-16.96-4.96-24
	c0-48.64,39.36-88,88-88s88,39.36,88,88s-88,152-88,152S255.12,338.72,231.84,304z M312,216c0-17.68-14.32-32-32-32s-32,14.32-32,32
	s14.32,32,32,32S312,233.68,312,216z"/>
<circle style="fill:#FF8A65;" cx="280" cy="216" r="32"/>
<path style="fill:#FF7043;" d="M80,16c35.36,0,64,28.64,64,64s-64,96-64,96s-64-60.64-64-96S44.64,16,80,16z M88,80c0-4.4-3.6-8-8-8
	s-8,3.6-8,8s3.6,8,8,8S88,84.4,88,80z"/>
<g>
	<path style="fill:#012E52;" d="M0,208c0,26.472,21.528,48,48,48h24c8.832,0,16-7.168,16-16s-7.168-16-16-16H48
		c-8.824,0-16-7.176-16-16s7.176-16,16-16h32c1.032,0,2.072-0.112,3.088-0.312c0.408-0.08,0.792-0.232,1.184-0.336
		c0.592-0.16,1.176-0.312,1.752-0.544c0.448-0.184,0.856-0.424,1.28-0.648c0.48-0.248,0.968-0.472,1.432-0.776
		s0.872-0.664,1.304-1.016c0.32-0.256,0.664-0.464,0.968-0.752C102.528,176.696,160,120.2,160,80c0-44.112-35.888-80-80-80
		S0,35.888,0,80c0,25.48,23.064,57.464,42.904,80.28C18.824,162.832,0,183.256,0,208z M80,32c26.472,0,48,21.528,48,48
		c0,16.792-25.336,49.696-48.008,73.4C57.328,129.728,32,96.832,32,80C32,53.528,53.528,32,80,32z"/>
	<path style="fill:#012E52;" d="M280,168c-26.472,0-48,21.528-48,48s21.528,48,48,48s48-21.528,48-48S306.472,168,280,168z M280,232
		c-8.824,0-16-7.176-16-16s7.176-16,16-16s16,7.176,16,16S288.824,232,280,232z"/>
	<path style="fill:#012E52;" d="M280,112c-57.344,0-104,46.656-104,104c0,2.552,0.232,5.24,0.584,8H128c-8.832,0-16,7.168-16,16
		s7.168,16,16,16h58.152c4.216,9.728,9.768,20.416,16.624,32H184c-8.832,0-16,7.168-16,16s7.168,16,16,16h39.384
		c8.192,11.888,16.304,22.84,23.336,32H128c-8.824,0-16-7.176-16-16s7.176-16,16-16c8.832,0,16-7.168,16-16s-7.168-16-16-16
		c-26.472,0-48,21.528-48,48s21.528,48,48,48h151.992H280c1.152,0,2.272-0.136,3.36-0.368c0.272-0.056,0.52-0.176,0.784-0.248
		c0.808-0.216,1.6-0.456,2.352-0.792c0.328-0.144,0.632-0.344,0.952-0.52c0.648-0.344,1.28-0.696,1.872-1.12
		c0.336-0.24,0.632-0.52,0.952-0.784c0.528-0.448,1.04-0.912,1.504-1.416c0.128-0.136,0.28-0.24,0.4-0.376
		C301.576,367.336,384,269,384,216C384,158.656,337.344,112,280,112z M280.072,342.728c-9.136-11.536-22.176-28.648-34.68-47.264
		c-0.16-0.248-0.32-0.496-0.496-0.736c-16.112-23.936-27.168-44.144-32.848-60.056C209.36,227.024,208,220.744,208,216
		c0-39.696,32.296-72,72-72s72,32.304,72,72C352,243.424,311.872,302.832,280.072,342.728z"/>
	<path style="fill:#012E52;" d="M104,80c0-13.232-10.768-24-24-24S56,66.768,56,80s10.768,24,24,24S104,93.232,104,80z"/>
</g>
<g>
</g>
<g>
</g>
<g>
</g>
<g>
</g>
<g>
</g>
<g>
</g>
<g>
</g>
<g>
</g>
<g>
</g>
<g>
</g>
<g>
</g>
<g>
</g>
<g>
</g>
<g>
</g>
<g>
</g>
</svg>
