<?xml version="1.0" encoding="iso-8859-1"?>
<!-- Generator: Adobe Illustrator 20.0.0, SVG Export Plug-In . SVG Version: 6.00 Build 0)  -->
<svg xmlns="http://www.w3.org/2000/svg" xmlns:xlink="http://www.w3.org/1999/xlink" version="1.1" id="Layer_1_1_" x="0px" y="0px" viewBox="0 0 64 64" style="enable-background:new 0 0 64 64;" xml:space="preserve" width="512" height="512">

<circle style="fill:#E6DFC1;" cx="57" cy="47" r="1"/>
<circle style="fill:#E6DFC1;" cx="44" cy="16" r="2"/>
<circle style="fill:#E6DFC1;" cx="7" cy="7" r="1"/>
<circle style="fill:#E6DFC1;" cx="32" cy="16" r="2"/>
<path style="fill:#CC5636;" d="M35.735,14.605c0.049,0.13,0.103,0.258,0.138,0.395H40V5V2H26v13h2.127  c0.035-0.136,0.089-0.264,0.138-0.395c0.024-0.064,0.04-0.13,0.067-0.193c0.096-0.22,0.209-0.431,0.341-0.628  c0.029-0.044,0.066-0.082,0.098-0.125c0.109-0.151,0.225-0.295,0.354-0.429c0.059-0.061,0.123-0.114,0.185-0.171  c0.115-0.105,0.232-0.205,0.359-0.296c0.074-0.054,0.15-0.103,0.228-0.151c0.129-0.08,0.262-0.152,0.401-0.218  c0.082-0.039,0.163-0.078,0.249-0.112c0.153-0.06,0.312-0.106,0.473-0.147c0.078-0.02,0.152-0.045,0.231-0.06  C31.494,12.029,31.743,12,32,12s0.506,0.029,0.75,0.076c0.079,0.015,0.154,0.041,0.231,0.06c0.162,0.041,0.32,0.087,0.473,0.147  c0.085,0.034,0.166,0.073,0.249,0.112c0.138,0.066,0.272,0.137,0.401,0.218c0.078,0.049,0.154,0.097,0.228,0.151  c0.126,0.091,0.244,0.191,0.359,0.296c0.062,0.057,0.126,0.11,0.185,0.171c0.129,0.134,0.245,0.278,0.354,0.429  c0.031,0.043,0.068,0.081,0.098,0.125c0.132,0.198,0.246,0.408,0.341,0.628C35.695,14.475,35.711,14.542,35.735,14.605z"/>
<path style="fill:#CC5636;" d="M7,2C3.775,2,2,4.131,2,8c0,3.523,3.471,7.811,5,9.529c1.529-1.719,5-6.006,5-9.529  C12,4.131,10.225,2,7,2z M7,10c-1.654,0-3-1.346-3-3s1.346-3,3-3s3,1.346,3,3S8.654,10,7,10z"/>
<path style="fill:#CC5636;" d="M57,42c-3.225,0-5,2.131-5,6c0,3.523,3.471,7.811,5,9.529c1.529-1.719,5-6.006,5-9.529  C62,44.131,60.225,42,57,42z M57,50c-1.654,0-3-1.346-3-3s1.346-3,3-3s3,1.346,3,3S58.654,50,57,50z"/>
<path style="fill:#367CCC;" d="M47.735,14.605c0.049,0.13,0.103,0.258,0.138,0.395H50v-4h-2c-0.409,0-0.776-0.249-0.929-0.629  L45.323,6H42v6.537c0.133-0.078,0.273-0.145,0.416-0.207c0.012-0.005,0.023-0.012,0.035-0.018c0.211-0.089,0.434-0.154,0.661-0.206  c0.056-0.013,0.113-0.024,0.17-0.034C43.516,12.03,43.754,12,44,12c0.257,0,0.506,0.029,0.75,0.076  c0.079,0.015,0.154,0.041,0.231,0.06c0.162,0.041,0.32,0.087,0.473,0.147c0.085,0.034,0.166,0.073,0.249,0.112  c0.138,0.066,0.272,0.137,0.401,0.218c0.078,0.049,0.154,0.097,0.228,0.151c0.126,0.091,0.244,0.191,0.359,0.296  c0.062,0.057,0.126,0.11,0.185,0.171c0.129,0.134,0.245,0.278,0.354,0.429c0.031,0.043,0.068,0.081,0.098,0.125  c0.132,0.198,0.246,0.408,0.341,0.628C47.695,14.475,47.711,14.542,47.735,14.605z"/>
<path style="fill:#1F2833;" d="M7,4C5.346,4,4,5.346,4,7s1.346,3,3,3s3-1.346,3-3S8.654,4,7,4z M7,8C6.448,8,6,7.552,6,7  s0.448-1,1-1s1,0.448,1,1S7.552,8,7,8z"/>
<path style="fill:#1F2833;" d="M57,40c-4.383,0-7,2.99-7,8c0,3.69,2.898,7.761,4.762,10H6c-2.206,0-4-1.794-4-4s1.794-4,4-4h33  c3.309,0,6-2.691,6-6s-2.691-6-6-6H19c-2.206,0-4-1.794-4-4s1.794-4,4-4h39c3.309,0,6-2.691,6-6s-2.691-6-6-6H47.444  c0.181-0.31,0.322-0.644,0.414-1H51c0.553,0,1-0.447,1-1v-6c0-0.553-0.447-1-1-1h-2.323l-1.748-4.371C46.776,4.249,46.409,4,46,4h-4  V1c0-0.553-0.447-1-1-1H25c-0.553,0-1,0.447-1,1v6h-2v2h2v2h-4v2h4v3c0,0.553,0.447,1,1,1h3.142c0.092,0.356,0.233,0.69,0.414,1  H9.238C11.102,15.761,14,11.69,14,8c0-5.01-2.617-8-7-8S0,2.99,0,8c0,5.322,6.034,11.447,6.291,11.705C6.479,19.894,6.734,20,7,20  h51c2.206,0,4,1.794,4,4s-1.794,4-4,4H19c-3.309,0-6,2.691-6,6s2.691,6,6,6h20c2.206,0,4,1.794,4,4s-1.794,4-4,4H6  c-3.309,0-6,2.691-6,6s2.691,6,6,6h51c0.266,0,0.521-0.106,0.709-0.295C57.966,59.447,64,53.322,64,48C64,42.99,61.383,40,57,40z   M2,8c0-3.869,1.775-6,5-6s5,2.131,5,6c0,3.523-3.471,7.811-5,9.529C5.471,15.811,2,11.523,2,8z M32,18c-1.103,0-2-0.897-2-2  s0.897-2,2-2s2,0.897,2,2S33.103,18,32,18z M35.229,13.659c-0.109-0.151-0.225-0.295-0.354-0.429  c-0.059-0.061-0.123-0.114-0.185-0.171c-0.115-0.105-0.232-0.205-0.359-0.296c-0.074-0.054-0.15-0.103-0.228-0.151  c-0.129-0.08-0.262-0.152-0.401-0.218c-0.082-0.039-0.163-0.078-0.249-0.112c-0.153-0.06-0.312-0.106-0.473-0.147  c-0.078-0.02-0.152-0.045-0.231-0.06C32.506,12.029,32.257,12,32,12s-0.506,0.029-0.75,0.076c-0.079,0.015-0.154,0.041-0.231,0.06  c-0.162,0.041-0.32,0.087-0.473,0.147c-0.085,0.034-0.166,0.073-0.249,0.112c-0.138,0.066-0.272,0.137-0.401,0.218  c-0.078,0.049-0.154,0.097-0.228,0.151c-0.126,0.091-0.244,0.191-0.359,0.296c-0.062,0.057-0.126,0.11-0.185,0.171  c-0.129,0.134-0.245,0.278-0.354,0.429c-0.031,0.043-0.068,0.081-0.098,0.125c-0.132,0.198-0.246,0.408-0.341,0.628  c-0.027,0.062-0.043,0.129-0.067,0.193c-0.049,0.13-0.103,0.258-0.138,0.395H26V2h14v3v10h-4.127  c-0.035-0.136-0.089-0.264-0.138-0.395c-0.024-0.064-0.04-0.13-0.067-0.193c-0.096-0.22-0.209-0.431-0.341-0.628  C35.297,13.74,35.26,13.702,35.229,13.659z M35.444,18c0.181-0.31,0.322-0.644,0.414-1h4.284c0.092,0.356,0.233,0.69,0.414,1H35.444  z M44,18c-1.103,0-2-0.897-2-2s0.897-2,2-2s2,0.897,2,2S45.103,18,44,18z M47.229,13.659c-0.109-0.151-0.225-0.295-0.354-0.429  c-0.059-0.061-0.123-0.114-0.185-0.171c-0.115-0.105-0.232-0.205-0.359-0.296c-0.074-0.054-0.15-0.103-0.228-0.151  c-0.129-0.08-0.262-0.152-0.401-0.218c-0.082-0.039-0.163-0.078-0.249-0.112c-0.153-0.06-0.312-0.106-0.473-0.147  c-0.078-0.02-0.152-0.045-0.231-0.06C44.506,12.029,44.257,12,44,12c-0.246,0-0.484,0.03-0.718,0.073  c-0.057,0.01-0.113,0.022-0.17,0.034c-0.227,0.052-0.45,0.116-0.661,0.206c-0.012,0.005-0.023,0.012-0.035,0.018  c-0.143,0.062-0.282,0.129-0.416,0.207V6h3.323l1.748,4.371C47.224,10.751,47.591,11,48,11h2v4h-2.127  c-0.035-0.136-0.089-0.264-0.138-0.395c-0.024-0.064-0.04-0.13-0.067-0.193c-0.096-0.22-0.209-0.431-0.341-0.628  C47.297,13.74,47.26,13.702,47.229,13.659z M57,57.529c-1.529-1.719-5-6.006-5-9.529c0-3.869,1.775-6,5-6s5,2.131,5,6  C62,51.523,58.529,55.811,57,57.529z"/>
<path style="fill:#1F2833;" d="M57,44c-1.654,0-3,1.346-3,3s1.346,3,3,3s3-1.346,3-3S58.654,44,57,44z M57,48c-0.552,0-1-0.448-1-1  s0.448-1,1-1s1,0.448,1,1S57.552,48,57,48z"/>
<rect x="62" y="62.001" style="fill:#1F2833;" width="2" height="2"/>
<rect x="58" y="62.001" style="fill:#1F2833;" width="2" height="2"/>
<rect x="54" y="62.001" style="fill:#1F2833;" width="2" height="2"/>
</svg>
