<?xml version="1.0" encoding="iso-8859-1"?>
<!-- Generator: Adobe Illustrator 19.0.0, SVG Export Plug-In . SVG Version: 6.00 Build 0)  -->
<svg version="1.1" id="Capa_1" xmlns="http://www.w3.org/2000/svg" xmlns:xlink="http://www.w3.org/1999/xlink" x="0px" y="0px"
	 viewBox="0 0 512 512" style="enable-background:new 0 0 512 512;" xml:space="preserve">
<path style="fill:#7BDBCB;" d="M296.217,502H64.147c-29.823,0-54-24.177-54-54l0,0c0-29.823,24.177-54,54-54h232.07
	c29.823,0,54,24.177,54,54l0,0C350.216,477.823,326.04,502,296.217,502z"/>
<path style="fill:#F75857;" d="M180.588,448c0,0,89.732-90.332,132.28-159.636c23.724-38.642,38.307-66.872,38.307-107.724
	c0-94.242-76.398-170.64-170.64-170.64h0.106C86.4,10,10.001,86.397,10.001,180.64c0,40.854,14.583,69.083,38.307,107.724
	C90.856,357.668,180.588,448,180.588,448L180.588,448z"/>
<circle style="fill:#FFFFFF;" cx="180.639" cy="180.639" r="80"/>
<rect x="269.999" y="293.998" style="fill:#ED8453;" width="231.999" height="183.999"/>
<polygon style="fill:#C25B38;" points="459.58,222.002 312.422,222.002 270.001,294.001 502,294.001 "/>
<g>
	<polygon style="fill:#F1F2F2;" points="419,222.002 351.175,222.002 344.001,294.001 428,294.001 	"/>
	<polygon style="fill:#F1F2F2;" points="344.001,378.748 365,357.748 386,378.748 407,357.748 428,378.748 428,294.001 
		344.001,294.001 	"/>
</g>
<path d="M180.749,270.639c5.512,0,9.986-4.462,9.999-9.977c0.013-5.523-4.454-10.01-9.978-10.023h-0.213c-0.008,0-0.015,0-0.023,0
	c-5.512,0-9.986,4.462-9.999,9.977c-0.013,5.523,4.454,10.01,9.978,10.023h0.213C180.734,270.639,180.741,270.639,180.749,270.639z"
	/>
<path d="M147.59,242.349c-22.791-12.232-36.948-35.878-36.948-61.708c0-38.598,31.402-70,70-70s70,31.402,70,70
	c0,26.65-14.815,50.637-38.666,62.6c-4.937,2.476-6.932,8.485-4.455,13.422c1.754,3.498,5.282,5.519,8.946,5.519
	c1.507,0,3.037-0.342,4.476-1.063c30.655-15.375,49.699-46.212,49.699-80.477c0-49.626-40.374-89.999-89.999-89.999
	s-89.999,40.374-89.999,89.999c0,33.21,18.197,63.608,47.489,79.331c4.865,2.609,10.928,0.784,13.54-4.082
	C154.284,251.023,152.457,244.96,147.59,242.349z"/>
<path d="M511.989,293.778c-0.008-0.341-0.032-0.677-0.072-1.009c-0.014-0.112-0.034-0.223-0.051-0.334
	c-0.048-0.303-0.108-0.601-0.183-0.894c-0.024-0.096-0.047-0.192-0.074-0.288c-0.224-0.784-0.54-1.528-0.938-2.22
	c-0.02-0.035-0.034-0.073-0.054-0.108l-42.421-72c-1.798-3.051-5.075-4.924-8.616-4.924h-40.579h-60.833
	c2.011-10.111,3.007-20.46,3.007-31.362c0-99.556-80.963-180.561-180.501-180.64c-0.012,0-0.022,0-0.033,0h-0.105
	c-0.011,0-0.021,0-0.033,0C80.964,0.079,0.001,81.084,0.001,180.64c0,44.699,16.49,75.012,39.785,112.956
	c18.042,29.387,44.072,62.123,68.39,90.404H64.147c-35.29,0-64,28.71-64,64s28.71,64,64,64h232.07c20.681,0,38.316-8.491,50.078-24
	H502c5.522,0,10-4.477,10-10V294.001c0-0.012-0.002-0.023-0.002-0.035C511.998,293.903,511.991,293.84,511.989,293.778z
	 M484.502,284.001h-47.674l-6.5-52h23.536L484.502,284.001z M260.001,384.001h-7.062c2.343-2.723,4.7-5.483,7.062-8.277V384.001z
	 M340.13,232.002l-5.182,52h-47.449l30.638-52L340.13,232.002L340.13,232.002z M354,304.001h64v50.605l-3.929-3.929
	c-3.906-3.905-10.236-3.905-14.143,0l-13.929,13.929l-13.929-13.929c-1.953-1.953-4.512-2.929-7.071-2.929
	c-2.559,0-5.118,0.976-7.071,2.929l-3.929,3.929L354,304.001L354,304.001z M410.172,232.002l6.5,52h-61.626l5.182-52
	L410.172,232.002L410.172,232.002z M20,180.64C20,92.079,92.034,20.026,180.588,20c88.555,0.026,160.587,72.08,160.587,160.64
	c0,10.986-1.147,21.3-3.466,31.362h-25.288c-3.541,0-6.818,1.873-8.616,4.924l-42.421,72c-0.021,0.035-0.034,0.073-0.054,0.108
	c-0.398,0.693-0.714,1.436-0.938,2.221c-0.027,0.095-0.049,0.19-0.074,0.286c-0.075,0.294-0.135,0.592-0.183,0.895
	c-0.018,0.112-0.037,0.222-0.051,0.334c-0.041,0.332-0.064,0.668-0.072,1.009c-0.001,0.063-0.009,0.125-0.009,0.188
	c0,0.012-0.002,0.023-0.002,0.035v50.366c-0.037,0.044-0.078,0.083-0.114,0.128c-31.168,38.546-64.94,74.297-79.297,89.176
	c-21.933-22.745-89.21-94.262-123.76-150.539C35.265,248.007,20,220.095,20,180.64z M296.217,492H64.147c-24.262,0-44-19.738-44-44
	c0-24.262,19.738-44,44-44h61.567c25.583,28.631,46.032,49.288,47.78,51.047c1.877,1.89,4.431,2.953,7.095,2.953
	s5.218-1.063,7.095-2.953c0.31-0.312,21.338-21.531,47.711-51.047h24.607v74c0,5.523,4.478,10,10,10h45.28
	C309.595,490.617,303.171,492,296.217,492z M492,468H280.001V304.001h54v74.747c0,4.044,2.437,7.691,6.173,9.239
	c3.737,1.549,8.038,0.692,10.898-2.167L365,371.891l13.929,13.929c3.906,3.905,10.236,3.905,14.143,0l13.929-13.929l13.929,13.929
	c1.913,1.913,4.471,2.929,7.073,2.929c1.288,0,2.588-0.25,3.825-0.762c3.736-1.548,6.173-5.194,6.173-9.239v-74.747h54L492,468
	L492,468z"/>
<g>
</g>
<g>
</g>
<g>
</g>
<g>
</g>
<g>
</g>
<g>
</g>
<g>
</g>
<g>
</g>
<g>
</g>
<g>
</g>
<g>
</g>
<g>
</g>
<g>
</g>
<g>
</g>
<g>
</g>
</svg>
