<?xml version="1.0"?>
<svg xmlns="http://www.w3.org/2000/svg" xmlns:xlink="http://www.w3.org/1999/xlink" viewBox="0 0 64 64" width="512" height="512"><linearGradient id="a" gradientUnits="userSpaceOnUse" x1="15.646" x2="70.538" y1="81.517" y2="26.625"><stop offset="0" stop-color="#003f8a"/><stop offset=".518" stop-color="#00d7df"/><stop offset="1" stop-color="#006df0"/></linearGradient><linearGradient id="b" x1="-22.116" x2="32.776" xlink:href="#a" y1="43.755" y2="-11.137"/><linearGradient id="c" x1="-23.386" x2="31.506" xlink:href="#a" y1="42.485" y2="-12.407"/><linearGradient id="d" x1="-2.935" x2="51.957" xlink:href="#a" y1="62.935" y2="8.043"/><linearGradient id="e" x1=".065" x2="54.957" xlink:href="#a" y1="65.935" y2="11.043"/><linearGradient id="f" x1="-5.935" x2="48.957" xlink:href="#a" y1="59.935" y2="5.043"/><linearGradient id="g" x1="-8.935" x2="45.957" xlink:href="#a" y1="56.935" y2="2.043"/><linearGradient id="h" x1="-11.685" x2="43.207" xlink:href="#a" y1="54.185" y2="-.707"/><linearGradient id="i" x1="6.065" x2="60.957" xlink:href="#a" y1="71.935" y2="17.043"/><linearGradient id="j" x1="-6.935" x2="47.957" xlink:href="#a" y1="58.935" y2="4.043"/><linearGradient id="k" x1="12.065" x2="66.957" xlink:href="#a" y1="77.935" y2="23.043"/><linearGradient id="l" x1="9.065" x2="63.957" xlink:href="#a" y1="74.935" y2="20.043"/><linearGradient id="m" x1="3.065" x2="57.957" xlink:href="#a" y1="68.935" y2="14.043"/><linearGradient id="n" x1="-10.935" x2="43.957" xlink:href="#a" y1="54.935" y2=".043"/><linearGradient id="o" x1="2.065" x2="56.957" xlink:href="#a" y1="67.935" y2="13.043"/><linearGradient id="p" x1="5.065" x2="59.957" xlink:href="#a" y1="70.935" y2="16.043"/><linearGradient id="q" x1="1.065" x2="55.957" xlink:href="#a" y1="66.935" y2="12.043"/><linearGradient id="r" x1="-1.935" x2="52.957" xlink:href="#a" y1="63.935" y2="9.043"/><linearGradient id="s" x1="8.065" x2="62.957" xlink:href="#a" y1="73.935" y2="19.043"/><linearGradient id="t" x1="-4.935" x2="49.957" xlink:href="#a" y1="60.935" y2="6.043"/><linearGradient id="u" x1="-9.935" x2="44.957" xlink:href="#a" y1="55.935" y2="1.043"/><linearGradient id="v" x1="-12.935" x2="41.957" xlink:href="#a" y1="52.935" y2="-1.957"/><linearGradient id="w" x1="-11.935" x2="42.957" xlink:href="#a" y1="53.935" y2="-.957"/><linearGradient id="x" x1="-7.935" x2="46.957" xlink:href="#a" y1="57.935" y2="3.043"/><path d="m63 39h-24a1 1 0 0 0 -1 1h-6.742a3.262 3.262 0 0 0 -3.258 3.258v.742a1 1 0 0 0 1 1h.164l-.451 5.407a3.251 3.251 0 0 0 -1.713 2.851v5.742a1 1 0 0 0 1 1h1.051a4.474 4.474 0 0 0 8.9 0h.049a1 1 0 0 0 1 1h14.236a4.36 4.36 0 0 0 8.238 0h1.526a1 1 0 0 0 1-1v-20a1 1 0 0 0 -1-1zm-29.5 16a4.494 4.494 0 0 0 -4.224 3h-.276v-4.742a1.259 1.259 0 0 1 1.258-1.258h7.742v6h-.276a4.494 4.494 0 0 0 -4.224-3zm-2.242-13h6.742v1h-7.974a1.261 1.261 0 0 1 1.232-1zm6.742 3v5h-7.246l.416-5zm-4.5 17a2.5 2.5 0 1 1 2.5-2.5 2.5 2.5 0 0 1 -2.5 2.5zm23.854-.07a2.388 2.388 0 1 1 2.388-2.387 2.389 2.389 0 0 1 -2.388 2.387zm4.646-2.93h-.313a4.363 4.363 0 0 0 -8.664 0h-13.023v-18h22z" fill="url(#a)"/><path d="m10 27a1 1 0 0 0 .774-.368c.945-1.157 9.226-11.454 9.226-16.632a10 10 0 0 0 -20 0c0 5.178 8.281 15.475 9.226 16.632a1 1 0 0 0 .774.368zm0-25a8.009 8.009 0 0 1 8 8c0 3.431-5.209 10.817-8 14.4-2.791-3.583-8-10.969-8-14.4a8.009 8.009 0 0 1 8-8z" fill="url(#b)"/><path d="m15.5 9.1a5.5 5.5 0 1 0 -5.5 5.5 5.506 5.506 0 0 0 5.5-5.5zm-9 0a3.5 3.5 0 1 1 3.5 3.5 3.5 3.5 0 0 1 -3.5-3.5z" fill="url(#c)"/><path d="m27 31a1 1 0 0 0 0 2h2a1 1 0 0 0 0-2z" fill="url(#d)"/><path d="m33 31a1 1 0 0 0 0 2h2a1 1 0 0 0 0-2z" fill="url(#e)"/><path d="m32 22h2a1 1 0 0 0 0-2h-2a1 1 0 0 0 0 2z" fill="url(#f)"/><path d="m26 22h2a1 1 0 0 0 0-2h-2a1 1 0 0 0 0 2z" fill="url(#g)"/><path d="m22 26a1 1 0 0 0 -2 0v2a1 1 0 0 0 2 0z" fill="url(#g)"/><path d="m20 22a1 1 0 0 0 2 0 1 1 0 0 0 0-2h-1a1 1 0 0 0 -1 1z" fill="url(#h)"/><path d="m56 22h2a1 1 0 0 0 0-2h-2a1 1 0 0 0 0 2z" fill="url(#i)"/><path d="m21 31h-2a1 1 0 0 0 0 2h2a1 1 0 0 0 0-2z" fill="url(#j)"/><path d="m57 31a1 1 0 0 0 0 2h2a1 1 0 0 0 0-2z" fill="url(#k)"/><path d="m61 25a1 1 0 0 0 1-1v-2a1 1 0 0 0 -2 0v2a1 1 0 0 0 1 1z" fill="url(#l)"/><path d="m51 31a1 1 0 0 0 0 2h2a1 1 0 0 0 0-2z" fill="url(#l)"/><path d="m38 22h2a1 1 0 0 0 0-2h-2a1 1 0 0 0 0 2z" fill="url(#d)"/><path d="m61 31a1 1 0 0 0 1-1v-2a1 1 0 0 0 -2 0v2a1 1 0 0 0 1 1z" fill="url(#k)"/><path d="m44 22h2a1 1 0 0 0 0-2h-2a1 1 0 0 0 0 2z" fill="url(#e)"/><path d="m39 31a1 1 0 0 0 0 2h2a1 1 0 0 0 0-2z" fill="url(#m)"/><path d="m45 31a1 1 0 0 0 0 2h2a1 1 0 0 0 0-2z" fill="url(#i)"/><path d="m50 22h2a1 1 0 0 0 0-2h-2a1 1 0 0 0 0 2z" fill="url(#m)"/><path d="m1 43a1 1 0 0 0 2 0v-2a1 1 0 0 0 -2 0z" fill="url(#n)"/><path d="m13 57a1 1 0 0 0 -2 0v1a1 1 0 0 0 1 1h1a1 1 0 0 0 0-2z" fill="url(#o)"/><path d="m19 57h-2a1 1 0 0 0 0 2h2a1 1 0 0 0 0-2z" fill="url(#p)"/><path d="m20 52h-2a1 1 0 0 0 0 2h2a1 1 0 0 0 0-2z" fill="url(#m)"/><path d="m14 52h-2a1 1 0 0 0 0 2h2a1 1 0 0 0 0-2z" fill="url(#e)"/><path d="m20 46a1 1 0 0 0 -1 1v2a1 1 0 0 0 2 0v-2a1 1 0 0 0 -1-1z" fill="url(#q)"/><path d="m27 35a1 1 0 0 0 -2 0v2a1 1 0 0 0 2 0z" fill="url(#r)"/><path d="m25 57h-2a1 1 0 0 0 0 2h2a1 1 0 0 0 0-2z" fill="url(#s)"/><path d="m24 38a1 1 0 0 0 -1-1h-2a1 1 0 0 0 0 2h2a1 1 0 0 0 1-1z" fill="url(#d)"/><path d="m10 46h-2a1 1 0 0 0 0 2h2a1 1 0 0 0 0-2z" fill="url(#t)"/><path d="m18 38a1 1 0 0 0 -1-1h-2a1 1 0 0 0 0 2h2a1 1 0 0 0 1-1z" fill="url(#f)"/><path d="m14 48h2a1 1 0 0 0 0-2h-2a1 1 0 0 0 0 2z" fill="url(#r)"/><path d="m8 38a1 1 0 0 0 1 1h2a1 1 0 0 0 0-2h-2a1 1 0 0 0 -1 1z" fill="url(#g)"/><path d="m16 32a1 1 0 0 0 -1-1h-2a1 1 0 0 0 0 2h2a1 1 0 0 0 1-1z" fill="url(#u)"/><path d="m11 31v-2a1 1 0 0 0 -2 0v2a1 1 0 0 0 2 0z" fill="url(#v)"/><path d="m5 37h-2a1 1 0 0 0 0 2h2a1 1 0 0 0 0-2z" fill="url(#w)"/><path d="m4 46h-2a1 1 0 0 0 0 2h2a1 1 0 0 0 0-2z" fill="url(#x)"/></svg>
