<?xml version="1.0" encoding="iso-8859-1"?>
<!-- Generator: Adobe Illustrator 19.0.0, SVG Export Plug-In . SVG Version: 6.00 Build 0)  -->
<svg version="1.1" id="Capa_1" xmlns="http://www.w3.org/2000/svg" xmlns:xlink="http://www.w3.org/1999/xlink" x="0px" y="0px"
	 viewBox="0 0 503.325 503.325" style="enable-background:new 0 0 503.325 503.325;" xml:space="preserve">
<g>
	<g>
		<g>
			<rect x="217.73" y="32.324" transform="matrix(0.1968 0.9804 -0.9804 0.1968 235.1185 -190.3454)" width="32" height="32"/>
			<rect x="230.325" y="95.004" transform="matrix(-0.9804 0.1968 -0.1968 -0.9804 509.6757 171.3682)" width="32" height="32"/>
			<rect x="138.33" y="272.45" transform="matrix(0.3613 0.9325 -0.9325 0.3613 367.5435 40.3342)" width="32" height="32"/>
			<rect x="92.13" y="153.076" transform="matrix(0.3608 0.9326 -0.9326 0.3608 226.7976 7.2214)" width="32" height="32"/>
			<rect x="115.241" y="212.758" transform="matrix(-0.9325 0.3613 -0.3613 -0.9325 336.2616 394.6519)" width="32" height="32"/>
			<rect x="297.075" y="432.146" transform="matrix(-0.9945 -0.1045 0.1045 -0.9945 577.6157 926.5485)" width="32" height="32"/>
			<rect x="169.769" y="418.756" transform="matrix(-0.9945 -0.1045 0.1045 -0.9945 325.0971 886.5417)" width="32" height="32"/>
			
				<rect x="233.414" y="425.443" transform="matrix(-0.9945 -0.1045 0.1045 -0.9945 451.3026 906.538)" width="31.984" height="32"/>
			<rect x="344.756" y="254.699" transform="matrix(-0.9912 -0.1326 0.1326 -0.9912 682.4414 586.8333)" width="32" height="32"/>
			<rect x="281.317" y="246.23" transform="matrix(0.9912 0.1326 -0.1326 0.9912 37.3884 -37.1009)" width="32" height="32"/>
			<rect x="383.535" y="133.785" transform="matrix(-0.9759 -0.218 0.218 -0.9759 757.5794 383.1548)" width="32.784" height="32"/>
			<rect x="7.17" y="465.137" transform="matrix(-0.5547 -0.8321 0.8321 -0.5547 -364.3079 767.3026)" width="32" height="32"/>
			<polygon points="419.6,72.216 281.28,41.304 309.76,183.176 157.168,162.792 233.296,359.32 89.856,344.248 89.856,417.448 
				54.224,441.192 71.984,467.816 121.856,434.568 121.856,379.768 282.048,396.616 206.544,201.672 349.952,220.84 322.336,83.272 
				432.112,107.8 462.816,69.432 437.808,49.448 			"/>
			<rect x="464.426" y="6.214" transform="matrix(0.6246 -0.7809 0.7809 0.6246 162.8582 383.2384)" width="31.296" height="32"/>
		</g>
	</g>
</g>
<g>
</g>
<g>
</g>
<g>
</g>
<g>
</g>
<g>
</g>
<g>
</g>
<g>
</g>
<g>
</g>
<g>
</g>
<g>
</g>
<g>
</g>
<g>
</g>
<g>
</g>
<g>
</g>
<g>
</g>
</svg>
